<svg width="1038" height="198" viewBox="0 0 1038 198" fill="none" xmlns="http://www.w3.org/2000/svg">
<mask id="path-1-outside-1_201_523" maskUnits="userSpaceOnUse" x="3" y="80" width="1031" height="90" fill="black">
<rect fill="white" x="3" y="80" width="1031" height="90"/>
<path d="M43.136 168.28C35.712 168.28 29.0987 166.659 23.296 163.416C17.4933 160.173 12.928 155.309 9.6 148.824C6.272 142.339 4.608 134.403 4.608 125.016C4.608 115.8 6.31467 107.949 9.728 101.464C13.2267 94.8933 18.2187 89.9013 24.704 86.488C31.1893 82.9893 38.8693 81.24 47.744 81.24C57.728 81.24 65.7493 83.032 71.808 86.616C77.952 90.2 82.688 95.8747 86.016 103.64L61.696 112.728C60.8427 108.547 59.2213 105.603 56.832 103.896C54.4427 102.104 51.456 101.208 47.872 101.208C44.2027 101.208 41.1307 102.104 38.656 103.896C36.2667 105.603 34.4747 108.205 33.28 111.704C32.0853 115.203 31.488 119.555 31.488 124.76C31.488 130.392 32.128 135 33.408 138.584C34.7733 142.168 36.8213 144.813 39.552 146.52C42.2827 148.141 45.6533 148.952 49.664 148.952C51.712 148.952 53.5893 148.739 55.296 148.312C57.0027 147.8 58.496 147.075 59.776 146.136C61.1413 145.197 62.1653 144.045 62.848 142.68C63.5307 141.229 63.872 139.565 63.872 137.688V137.048H47.232V120.28H85.888V167H68.352L66.304 145.624L70.4 149.72C68.864 155.693 65.792 160.301 61.184 163.544C56.576 166.701 50.56 168.28 43.136 168.28ZM100.183 167V82.52H168.279V102.104H126.295V115.8H159.831V133.976H126.295V147.416H169.943V167H100.183ZM255.694 82.52V102.104H228.814V167H202.702V102.104H175.566V82.52H255.694ZM366.776 102.104H324.92V116.824H358.456V136.408H324.92V167H298.808V82.52H366.776V102.104ZM454.364 82.52V131.544C454.364 143.832 451.079 153.048 444.508 159.192C437.937 165.251 428.124 168.28 415.068 168.28C401.927 168.28 392.071 165.251 385.5 159.192C378.929 153.048 375.644 143.832 375.644 131.544V82.52H401.884V132.952C401.884 138.072 402.993 141.912 405.212 144.472C407.431 147.032 410.716 148.312 415.068 148.312C419.42 148.312 422.705 147.032 424.924 144.472C427.143 141.912 428.252 138.072 428.252 132.952V82.52H454.364ZM511.572 82.52C522.068 82.52 530.175 84.952 535.892 89.816C541.695 94.5947 544.596 100.995 544.596 109.016C544.596 117.976 541.78 124.76 536.148 129.368C530.516 133.976 522.409 136.28 511.828 136.28L509.268 137.688H493.908V167H468.308V82.52H511.572ZM507.348 119.896C511.017 119.896 513.748 119.213 515.54 117.848C517.417 116.397 518.356 114.051 518.356 110.808C518.356 107.565 517.417 105.219 515.54 103.768C513.748 102.317 511.017 101.592 507.348 101.592H493.908V119.896H507.348ZM522.836 125.4L549.46 167H520.916L500.308 130.008L522.836 125.4ZM637.299 82.52V167H608.627L585.587 125.144L580.211 113.752H579.955L580.467 130.392V167H557.683V82.52H586.227L609.267 124.376L614.771 135.768H614.899L614.387 119.128V82.52H637.299ZM679.045 82.52V167H652.933V82.52H679.045ZM729.755 81.24C737.776 81.24 744.902 82.3493 751.131 84.568C757.36 86.7013 762.822 89.9867 767.515 94.424L756.123 111.192C752.283 107.949 748.187 105.432 743.835 103.64C739.568 101.763 734.832 100.824 729.627 100.824C726.982 100.824 724.848 101.08 723.227 101.592C721.606 102.104 720.411 102.829 719.643 103.768C718.96 104.621 718.619 105.603 718.619 106.712C718.619 108.077 719.43 109.187 721.051 110.04C722.758 110.893 725.104 111.661 728.091 112.344L740.891 115.288C749.424 117.251 755.782 120.152 759.963 123.992C764.144 127.747 766.235 132.909 766.235 139.48C766.235 145.88 764.614 151.213 761.371 155.48C758.214 159.747 753.862 162.947 748.315 165.08C742.768 167.213 736.496 168.28 729.499 168.28C723.952 168.28 718.534 167.725 713.243 166.616C708.038 165.507 703.259 163.928 698.907 161.88C694.555 159.747 690.8 157.229 687.643 154.328L698.907 137.048C701.211 139.267 704.027 141.272 707.355 143.064C710.683 144.771 714.224 146.136 717.979 147.16C721.734 148.184 725.36 148.696 728.859 148.696C731.334 148.696 733.339 148.483 734.875 148.056C736.496 147.544 737.648 146.861 738.331 146.008C739.014 145.155 739.355 144.131 739.355 142.936C739.355 141.485 738.8 140.333 737.691 139.48C736.582 138.541 734.491 137.731 731.419 137.048L717.339 133.848C712.731 132.824 708.464 131.416 704.539 129.624C700.614 127.832 697.456 125.357 695.067 122.2C692.763 118.957 691.611 114.733 691.611 109.528C691.611 103.981 693.104 99.0747 696.091 94.808C699.078 90.5413 703.43 87.2133 709.147 84.824C714.864 82.4347 721.734 81.24 729.755 81.24ZM857.302 82.52V167H831.062V82.52H857.302ZM803.67 82.52V167H777.558V82.52H803.67ZM845.398 114.648V134.232H790.23V114.648H845.398ZM872.933 167V82.52H941.029V102.104H899.045V115.8H932.581V133.976H899.045V147.416H942.693V167H872.933ZM992.092 82.52C1005.32 82.52 1015.39 86.1893 1022.3 93.528C1029.21 100.867 1032.67 111.277 1032.67 124.76C1032.67 138.157 1029.21 148.568 1022.3 155.992C1015.39 163.331 1005.32 167 992.092 167H953.308V82.52H992.092ZM988.892 147.928C995.207 147.928 999.601 146.051 1002.08 142.296C1004.55 138.456 1005.79 132.611 1005.79 124.76C1005.79 116.909 1004.55 111.107 1002.08 107.352C999.601 103.512 995.207 101.592 988.892 101.592H979.42V147.928H988.892Z"/>
</mask>
<path d="M43.136 168.28C35.712 168.28 29.0987 166.659 23.296 163.416C17.4933 160.173 12.928 155.309 9.6 148.824C6.272 142.339 4.608 134.403 4.608 125.016C4.608 115.8 6.31467 107.949 9.728 101.464C13.2267 94.8933 18.2187 89.9013 24.704 86.488C31.1893 82.9893 38.8693 81.24 47.744 81.24C57.728 81.24 65.7493 83.032 71.808 86.616C77.952 90.2 82.688 95.8747 86.016 103.64L61.696 112.728C60.8427 108.547 59.2213 105.603 56.832 103.896C54.4427 102.104 51.456 101.208 47.872 101.208C44.2027 101.208 41.1307 102.104 38.656 103.896C36.2667 105.603 34.4747 108.205 33.28 111.704C32.0853 115.203 31.488 119.555 31.488 124.76C31.488 130.392 32.128 135 33.408 138.584C34.7733 142.168 36.8213 144.813 39.552 146.52C42.2827 148.141 45.6533 148.952 49.664 148.952C51.712 148.952 53.5893 148.739 55.296 148.312C57.0027 147.8 58.496 147.075 59.776 146.136C61.1413 145.197 62.1653 144.045 62.848 142.68C63.5307 141.229 63.872 139.565 63.872 137.688V137.048H47.232V120.28H85.888V167H68.352L66.304 145.624L70.4 149.72C68.864 155.693 65.792 160.301 61.184 163.544C56.576 166.701 50.56 168.28 43.136 168.28ZM100.183 167V82.52H168.279V102.104H126.295V115.8H159.831V133.976H126.295V147.416H169.943V167H100.183ZM255.694 82.52V102.104H228.814V167H202.702V102.104H175.566V82.52H255.694ZM366.776 102.104H324.92V116.824H358.456V136.408H324.92V167H298.808V82.52H366.776V102.104ZM454.364 82.52V131.544C454.364 143.832 451.079 153.048 444.508 159.192C437.937 165.251 428.124 168.28 415.068 168.28C401.927 168.28 392.071 165.251 385.5 159.192C378.929 153.048 375.644 143.832 375.644 131.544V82.52H401.884V132.952C401.884 138.072 402.993 141.912 405.212 144.472C407.431 147.032 410.716 148.312 415.068 148.312C419.42 148.312 422.705 147.032 424.924 144.472C427.143 141.912 428.252 138.072 428.252 132.952V82.52H454.364ZM511.572 82.52C522.068 82.52 530.175 84.952 535.892 89.816C541.695 94.5947 544.596 100.995 544.596 109.016C544.596 117.976 541.78 124.76 536.148 129.368C530.516 133.976 522.409 136.28 511.828 136.28L509.268 137.688H493.908V167H468.308V82.52H511.572ZM507.348 119.896C511.017 119.896 513.748 119.213 515.54 117.848C517.417 116.397 518.356 114.051 518.356 110.808C518.356 107.565 517.417 105.219 515.54 103.768C513.748 102.317 511.017 101.592 507.348 101.592H493.908V119.896H507.348ZM522.836 125.4L549.46 167H520.916L500.308 130.008L522.836 125.4ZM637.299 82.52V167H608.627L585.587 125.144L580.211 113.752H579.955L580.467 130.392V167H557.683V82.52H586.227L609.267 124.376L614.771 135.768H614.899L614.387 119.128V82.52H637.299ZM679.045 82.52V167H652.933V82.52H679.045ZM729.755 81.24C737.776 81.24 744.902 82.3493 751.131 84.568C757.36 86.7013 762.822 89.9867 767.515 94.424L756.123 111.192C752.283 107.949 748.187 105.432 743.835 103.64C739.568 101.763 734.832 100.824 729.627 100.824C726.982 100.824 724.848 101.08 723.227 101.592C721.606 102.104 720.411 102.829 719.643 103.768C718.96 104.621 718.619 105.603 718.619 106.712C718.619 108.077 719.43 109.187 721.051 110.04C722.758 110.893 725.104 111.661 728.091 112.344L740.891 115.288C749.424 117.251 755.782 120.152 759.963 123.992C764.144 127.747 766.235 132.909 766.235 139.48C766.235 145.88 764.614 151.213 761.371 155.48C758.214 159.747 753.862 162.947 748.315 165.08C742.768 167.213 736.496 168.28 729.499 168.28C723.952 168.28 718.534 167.725 713.243 166.616C708.038 165.507 703.259 163.928 698.907 161.88C694.555 159.747 690.8 157.229 687.643 154.328L698.907 137.048C701.211 139.267 704.027 141.272 707.355 143.064C710.683 144.771 714.224 146.136 717.979 147.16C721.734 148.184 725.36 148.696 728.859 148.696C731.334 148.696 733.339 148.483 734.875 148.056C736.496 147.544 737.648 146.861 738.331 146.008C739.014 145.155 739.355 144.131 739.355 142.936C739.355 141.485 738.8 140.333 737.691 139.48C736.582 138.541 734.491 137.731 731.419 137.048L717.339 133.848C712.731 132.824 708.464 131.416 704.539 129.624C700.614 127.832 697.456 125.357 695.067 122.2C692.763 118.957 691.611 114.733 691.611 109.528C691.611 103.981 693.104 99.0747 696.091 94.808C699.078 90.5413 703.43 87.2133 709.147 84.824C714.864 82.4347 721.734 81.24 729.755 81.24ZM857.302 82.52V167H831.062V82.52H857.302ZM803.67 82.52V167H777.558V82.52H803.67ZM845.398 114.648V134.232H790.23V114.648H845.398ZM872.933 167V82.52H941.029V102.104H899.045V115.8H932.581V133.976H899.045V147.416H942.693V167H872.933ZM992.092 82.52C1005.32 82.52 1015.39 86.1893 1022.3 93.528C1029.21 100.867 1032.67 111.277 1032.67 124.76C1032.67 138.157 1029.21 148.568 1022.3 155.992C1015.39 163.331 1005.32 167 992.092 167H953.308V82.52H992.092ZM988.892 147.928C995.207 147.928 999.601 146.051 1002.08 142.296C1004.55 138.456 1005.79 132.611 1005.79 124.76C1005.79 116.909 1004.55 111.107 1002.08 107.352C999.601 103.512 995.207 101.592 988.892 101.592H979.42V147.928H988.892Z" fill="url(#paint0_linear_201_523)" fill-opacity="0.05"/>
<path d="M23.296 163.416L23.7838 162.543L23.296 163.416ZM9.6 148.824L8.71031 149.281L9.6 148.824ZM9.728 101.464L8.84532 100.994L8.84308 100.998L9.728 101.464ZM24.704 86.488L25.1698 87.373L25.1788 87.3681L24.704 86.488ZM71.808 86.616L71.2989 87.4767L71.3041 87.4798L71.808 86.616ZM86.016 103.64L86.3661 104.577L87.3481 104.21L86.9352 103.246L86.016 103.64ZM61.696 112.728L60.7162 112.928L60.9501 114.074L62.046 113.665L61.696 112.728ZM56.832 103.896L56.232 104.696L56.2413 104.703L56.2508 104.71L56.832 103.896ZM38.656 103.896L39.2373 104.71L39.2425 104.706L38.656 103.896ZM33.28 111.704L34.2264 112.027L33.28 111.704ZM33.408 138.584L32.4663 138.92L32.4698 138.93L32.4735 138.94L33.408 138.584ZM39.552 146.52L39.022 147.368L39.0317 147.374L39.0415 147.38L39.552 146.52ZM55.296 148.312L55.5385 149.282L55.5611 149.277L55.5833 149.27L55.296 148.312ZM59.776 146.136L59.2095 145.312L59.1969 145.321L59.1846 145.33L59.776 146.136ZM62.848 142.68L63.7424 143.127L63.7478 143.117L63.7528 143.106L62.848 142.68ZM63.872 137.048H64.872V136.048H63.872V137.048ZM47.232 137.048H46.232V138.048H47.232V137.048ZM47.232 120.28V119.28H46.232V120.28H47.232ZM85.888 120.28H86.888V119.28H85.888V120.28ZM85.888 167V168H86.888V167H85.888ZM68.352 167L67.3566 167.095L67.4432 168H68.352V167ZM66.304 145.624L67.0111 144.917L65.0431 142.949L65.3086 145.719L66.304 145.624ZM70.4 149.72L71.3685 149.969L71.5106 149.416L71.1071 149.013L70.4 149.72ZM61.184 163.544L61.7493 164.369L61.7595 164.362L61.184 163.544ZM43.136 167.28C35.8624 167.28 29.4206 165.693 23.7838 162.543L22.8082 164.289C28.7767 167.624 35.5616 169.28 43.136 169.28V167.28ZM23.7838 162.543C18.1698 159.406 13.7368 154.695 10.4897 148.367L8.71031 149.281C12.1192 155.924 16.8169 160.941 22.8082 164.289L23.7838 162.543ZM10.4897 148.367C7.25201 142.058 5.608 134.288 5.608 125.016H3.608C3.608 134.517 5.29199 142.619 8.71031 149.281L10.4897 148.367ZM5.608 125.016C5.608 115.921 7.29216 108.239 10.6129 101.93L8.84308 100.998C5.33717 107.659 3.608 115.679 3.608 125.016H5.608ZM10.6107 101.934C14.0167 95.5373 18.8648 90.6913 25.1697 87.3729L24.2383 85.6031C17.5725 89.1114 12.4367 94.2493 8.84533 100.994L10.6107 101.934ZM25.1788 87.3681C31.4912 83.9627 39.0014 82.24 47.744 82.24V80.24C38.7373 80.24 30.8874 82.016 24.2292 85.6079L25.1788 87.3681ZM47.744 82.24C57.6199 82.24 65.4458 84.0143 71.2989 87.4767L72.3171 85.7553C66.0529 82.0497 57.8361 80.24 47.744 80.24V82.24ZM71.3041 87.4798C77.23 90.9366 81.837 96.4276 85.0969 104.034L86.9352 103.246C83.539 95.3218 78.674 89.4634 72.3119 85.7522L71.3041 87.4798ZM85.666 102.703L61.346 111.791L62.046 113.665L86.3661 104.577L85.666 102.703ZM62.6758 112.528C61.7946 108.21 60.0849 104.991 57.4132 103.082L56.2508 104.71C58.3578 106.215 59.8907 108.883 60.7162 112.928L62.6758 112.528ZM57.432 103.096C54.8371 101.15 51.6279 100.208 47.872 100.208V102.208C51.2841 102.208 54.0483 103.058 56.232 104.696L57.432 103.096ZM47.872 100.208C44.0354 100.208 40.7468 101.147 38.0695 103.086L39.2425 104.706C41.5145 103.061 44.37 102.208 47.872 102.208V100.208ZM38.0748 103.082C35.4759 104.939 33.5782 107.736 32.3337 111.381L34.2264 112.027C35.3711 108.675 37.0574 106.267 39.2372 104.71L38.0748 103.082ZM32.3337 111.381C31.0922 115.016 30.488 119.486 30.488 124.76H32.488C32.488 119.623 33.0784 115.389 34.2264 112.027L32.3337 111.381ZM30.488 124.76C30.488 130.457 31.1339 135.19 32.4663 138.92L34.3497 138.248C33.1221 134.81 32.488 130.327 32.488 124.76H30.488ZM32.4735 138.94C33.9011 142.688 36.0731 145.525 39.022 147.368L40.082 145.672C37.5696 144.102 35.6455 141.648 34.3425 138.228L32.4735 138.94ZM39.0415 147.38C41.9623 149.114 45.5203 149.952 49.664 149.952V147.952C45.7864 147.952 42.603 147.169 40.0625 145.66L39.0415 147.38ZM49.664 149.952C51.7807 149.952 53.7408 149.732 55.5385 149.282L55.0535 147.342C53.4378 147.746 51.6433 147.952 49.664 147.952V149.952ZM55.5833 149.27C57.386 148.729 58.9849 147.956 60.3674 146.942L59.1846 145.33C58.0071 146.193 56.6194 146.871 55.0087 147.354L55.5833 149.27ZM60.3425 146.96C61.835 145.934 62.9777 144.657 63.7424 143.127L61.9536 142.233C61.3529 143.434 60.4476 144.461 59.2095 145.312L60.3425 146.96ZM63.7528 143.106C64.508 141.501 64.872 139.688 64.872 137.688H62.872C62.872 139.443 62.5533 140.958 61.9432 142.254L63.7528 143.106ZM64.872 137.688V137.048H62.872V137.688H64.872ZM63.872 136.048H47.232V138.048H63.872V136.048ZM48.232 137.048V120.28H46.232V137.048H48.232ZM47.232 121.28H85.888V119.28H47.232V121.28ZM84.888 120.28V167H86.888V120.28H84.888ZM85.888 166H68.352V168H85.888V166ZM69.3475 166.905L67.2994 145.529L65.3086 145.719L67.3566 167.095L69.3475 166.905ZM65.5969 146.331L69.6929 150.427L71.1071 149.013L67.0111 144.917L65.5969 146.331ZM69.4315 149.471C67.9487 155.237 65.0032 159.634 60.6085 162.726L61.7595 164.362C66.5808 160.969 69.7793 156.149 71.3685 149.969L69.4315 149.471ZM60.6188 162.719C56.224 165.73 50.4236 167.28 43.136 167.28V169.28C50.6964 169.28 56.928 167.672 61.7492 164.369L60.6188 162.719ZM100.183 167H99.183V168H100.183V167ZM100.183 82.52V81.52H99.183V82.52H100.183ZM168.279 82.52H169.279V81.52H168.279V82.52ZM168.279 102.104V103.104H169.279V102.104H168.279ZM126.295 102.104V101.104H125.295V102.104H126.295ZM126.295 115.8H125.295V116.8H126.295V115.8ZM159.831 115.8H160.831V114.8H159.831V115.8ZM159.831 133.976V134.976H160.831V133.976H159.831ZM126.295 133.976V132.976H125.295V133.976H126.295ZM126.295 147.416H125.295V148.416H126.295V147.416ZM169.943 147.416H170.943V146.416H169.943V147.416ZM169.943 167V168H170.943V167H169.943ZM101.183 167V82.52H99.183V167H101.183ZM100.183 83.52H168.279V81.52H100.183V83.52ZM167.279 82.52V102.104H169.279V82.52H167.279ZM168.279 101.104H126.295V103.104H168.279V101.104ZM125.295 102.104V115.8H127.295V102.104H125.295ZM126.295 116.8H159.831V114.8H126.295V116.8ZM158.831 115.8V133.976H160.831V115.8H158.831ZM159.831 132.976H126.295V134.976H159.831V132.976ZM125.295 133.976V147.416H127.295V133.976H125.295ZM126.295 148.416H169.943V146.416H126.295V148.416ZM168.943 147.416V167H170.943V147.416H168.943ZM169.943 166H100.183V168H169.943V166ZM255.694 82.52H256.694V81.52H255.694V82.52ZM255.694 102.104V103.104H256.694V102.104H255.694ZM228.814 102.104V101.104H227.814V102.104H228.814ZM228.814 167V168H229.814V167H228.814ZM202.702 167H201.702V168H202.702V167ZM202.702 102.104H203.702V101.104H202.702V102.104ZM175.566 102.104H174.566V103.104H175.566V102.104ZM175.566 82.52V81.52H174.566V82.52H175.566ZM254.694 82.52V102.104H256.694V82.52H254.694ZM255.694 101.104H228.814V103.104H255.694V101.104ZM227.814 102.104V167H229.814V102.104H227.814ZM228.814 166H202.702V168H228.814V166ZM203.702 167V102.104H201.702V167H203.702ZM202.702 101.104H175.566V103.104H202.702V101.104ZM176.566 102.104V82.52H174.566V102.104H176.566ZM175.566 83.52H255.694V81.52H175.566V83.52ZM366.776 102.104V103.104H367.776V102.104H366.776ZM324.92 102.104V101.104H323.92V102.104H324.92ZM324.92 116.824H323.92V117.824H324.92V116.824ZM358.456 116.824H359.456V115.824H358.456V116.824ZM358.456 136.408V137.408H359.456V136.408H358.456ZM324.92 136.408V135.408H323.92V136.408H324.92ZM324.92 167V168H325.92V167H324.92ZM298.808 167H297.808V168H298.808V167ZM298.808 82.52V81.52H297.808V82.52H298.808ZM366.776 82.52H367.776V81.52H366.776V82.52ZM366.776 101.104H324.92V103.104H366.776V101.104ZM323.92 102.104V116.824H325.92V102.104H323.92ZM324.92 117.824H358.456V115.824H324.92V117.824ZM357.456 116.824V136.408H359.456V116.824H357.456ZM358.456 135.408H324.92V137.408H358.456V135.408ZM323.92 136.408V167H325.92V136.408H323.92ZM324.92 166H298.808V168H324.92V166ZM299.808 167V82.52H297.808V167H299.808ZM298.808 83.52H366.776V81.52H298.808V83.52ZM365.776 82.52V102.104H367.776V82.52H365.776ZM454.364 82.52H455.364V81.52H454.364V82.52ZM444.508 159.192L445.186 159.927L445.191 159.922L444.508 159.192ZM385.5 159.192L384.817 159.922L384.822 159.927L385.5 159.192ZM375.644 82.52V81.52H374.644V82.52H375.644ZM401.884 82.52H402.884V81.52H401.884V82.52ZM424.924 144.472L425.68 145.127L424.924 144.472ZM428.252 82.52V81.52H427.252V82.52H428.252ZM453.364 82.52V131.544H455.364V82.52H453.364ZM453.364 131.544C453.364 143.66 450.128 152.568 443.825 158.462L445.191 159.922C452.03 153.528 455.364 144.004 455.364 131.544H453.364ZM443.83 158.457C437.514 164.281 427.987 167.28 415.068 167.28V169.28C428.261 169.28 438.361 166.22 445.186 159.927L443.83 158.457ZM415.068 167.28C402.062 167.28 392.493 164.28 386.178 158.457L384.822 159.927C391.648 166.221 401.792 169.28 415.068 169.28V167.28ZM386.183 158.462C379.88 152.568 376.644 143.66 376.644 131.544H374.644C374.644 144.004 377.978 153.528 384.817 159.922L386.183 158.462ZM376.644 131.544V82.52H374.644V131.544H376.644ZM375.644 83.52H401.884V81.52H375.644V83.52ZM400.884 82.52V132.952H402.884V82.52H400.884ZM400.884 132.952C400.884 138.194 402.017 142.312 404.456 145.127L405.968 143.817C403.97 141.512 402.884 137.95 402.884 132.952H400.884ZM404.456 145.127C406.916 147.965 410.514 149.312 415.068 149.312V147.312C410.918 147.312 407.945 146.099 405.968 143.817L404.456 145.127ZM415.068 149.312C419.622 149.312 423.22 147.965 425.68 145.127L424.168 143.817C422.191 146.099 419.218 147.312 415.068 147.312V149.312ZM425.68 145.127C428.119 142.312 429.252 138.194 429.252 132.952H427.252C427.252 137.95 426.166 141.512 424.168 143.817L425.68 145.127ZM429.252 132.952V82.52H427.252V132.952H429.252ZM428.252 83.52H454.364V81.52H428.252V83.52ZM535.892 89.816L535.244 90.5777L535.25 90.5828L535.256 90.5879L535.892 89.816ZM536.148 129.368L536.781 130.142L536.148 129.368ZM511.828 136.28V135.28H511.571L511.346 135.404L511.828 136.28ZM509.268 137.688V138.688H509.525L509.75 138.564L509.268 137.688ZM493.908 137.688V136.688H492.908V137.688H493.908ZM493.908 167V168H494.908V167H493.908ZM468.308 167H467.308V168H468.308V167ZM468.308 82.52V81.52H467.308V82.52H468.308ZM515.54 117.848L516.146 118.643L516.151 118.639L515.54 117.848ZM515.54 103.768L514.911 104.545L514.92 104.552L514.929 104.559L515.54 103.768ZM493.908 101.592V100.592H492.908V101.592H493.908ZM493.908 119.896H492.908V120.896H493.908V119.896ZM522.836 125.4L523.678 124.861L523.308 124.283L522.636 124.42L522.836 125.4ZM549.46 167V168H551.287L550.302 166.461L549.46 167ZM520.916 167L520.042 167.487L520.328 168H520.916V167ZM500.308 130.008L500.108 129.028L498.77 129.302L499.434 130.495L500.308 130.008ZM511.572 83.52C521.924 83.52 529.768 85.919 535.244 90.5777L536.54 89.0543C530.581 83.985 522.212 81.52 511.572 81.52V83.52ZM535.256 90.5879C540.811 95.1625 543.596 101.271 543.596 109.016H545.596C545.596 100.719 542.578 94.0268 536.528 89.0441L535.256 90.5879ZM543.596 109.016C543.596 117.752 540.862 124.219 535.515 128.594L536.781 130.142C542.698 125.301 545.596 118.2 545.596 109.016H543.596ZM535.515 128.594C530.127 133.002 522.28 135.28 511.828 135.28V137.28C522.538 137.28 530.905 134.95 536.781 130.142L535.515 128.594ZM511.346 135.404L508.786 136.812L509.75 138.564L512.31 137.156L511.346 135.404ZM509.268 136.688H493.908V138.688H509.268V136.688ZM492.908 137.688V167H494.908V137.688H492.908ZM493.908 166H468.308V168H493.908V166ZM469.308 167V82.52H467.308V167H469.308ZM468.308 83.52H511.572V81.52H468.308V83.52ZM507.348 120.896C511.11 120.896 514.101 120.202 516.146 118.643L514.934 117.053C513.395 118.225 510.925 118.896 507.348 118.896V120.896ZM516.151 118.639C518.356 116.936 519.356 114.239 519.356 110.808H517.356C517.356 113.862 516.479 115.859 514.929 117.057L516.151 118.639ZM519.356 110.808C519.356 107.377 518.356 104.68 516.151 102.977L514.929 104.559C516.479 105.757 517.356 107.754 517.356 110.808H519.356ZM516.169 102.991C514.121 101.332 511.119 100.592 507.348 100.592V102.592C510.915 102.592 513.375 103.302 514.911 104.545L516.169 102.991ZM507.348 100.592H493.908V102.592H507.348V100.592ZM492.908 101.592V119.896H494.908V101.592H492.908ZM493.908 120.896H507.348V118.896H493.908V120.896ZM521.994 125.939L548.618 167.539L550.302 166.461L523.678 124.861L521.994 125.939ZM549.46 166H520.916V168H549.46V166ZM521.79 166.513L501.182 129.521L499.434 130.495L520.042 167.487L521.79 166.513ZM500.508 130.988L523.036 126.38L522.636 124.42L500.108 129.028L500.508 130.988ZM637.299 82.52H638.299V81.52H637.299V82.52ZM637.299 167V168H638.299V167H637.299ZM608.627 167L607.751 167.482L608.036 168H608.627V167ZM585.587 125.144L584.683 125.571L584.696 125.599L584.711 125.626L585.587 125.144ZM580.211 113.752L581.115 113.325L580.845 112.752H580.211V113.752ZM579.955 113.752V112.752H578.924L578.956 113.783L579.955 113.752ZM580.467 130.392H581.467V130.377L581.467 130.361L580.467 130.392ZM580.467 167V168H581.467V167H580.467ZM557.683 167H556.683V168H557.683V167ZM557.683 82.52V81.52H556.683V82.52H557.683ZM586.227 82.52L587.103 82.0378L586.818 81.52H586.227V82.52ZM609.267 124.376L610.167 123.941L610.156 123.917L610.143 123.894L609.267 124.376ZM614.771 135.768L613.871 136.203L614.144 136.768H614.771V135.768ZM614.899 135.768V136.768H615.93L615.898 135.737L614.899 135.768ZM614.387 119.128H613.387V119.143L613.387 119.159L614.387 119.128ZM614.387 82.52V81.52H613.387V82.52H614.387ZM636.299 82.52V167H638.299V82.52H636.299ZM637.299 166H608.627V168H637.299V166ZM609.503 166.518L586.463 124.662L584.711 125.626L607.751 167.482L609.503 166.518ZM586.491 124.717L581.115 113.325L579.307 114.179L584.683 125.571L586.491 124.717ZM580.211 112.752H579.955V114.752H580.211V112.752ZM578.956 113.783L579.467 130.423L581.467 130.361L580.955 113.721L578.956 113.783ZM579.467 130.392V167H581.467V130.392H579.467ZM580.467 166H557.683V168H580.467V166ZM558.683 167V82.52H556.683V167H558.683ZM557.683 83.52H586.227V81.52H557.683V83.52ZM585.351 83.0022L608.391 124.858L610.143 123.894L587.103 82.0378L585.351 83.0022ZM608.367 124.811L613.871 136.203L615.671 135.333L610.167 123.941L608.367 124.811ZM614.771 136.768H614.899V134.768H614.771V136.768ZM615.898 135.737L615.387 119.097L613.387 119.159L613.899 135.799L615.898 135.737ZM615.387 119.128V82.52H613.387V119.128H615.387ZM614.387 83.52H637.299V81.52H614.387V83.52ZM679.045 82.52H680.045V81.52H679.045V82.52ZM679.045 167V168H680.045V167H679.045ZM652.933 167H651.933V168H652.933V167ZM652.933 82.52V81.52H651.933V82.52H652.933ZM678.045 82.52V167H680.045V82.52H678.045ZM679.045 166H652.933V168H679.045V166ZM653.933 167V82.52H651.933V167H653.933ZM652.933 83.52H679.045V81.52H652.933V83.52ZM751.131 84.568L750.795 85.5101L750.807 85.5141L751.131 84.568ZM767.515 94.424L768.342 94.986L768.82 94.282L768.202 93.6973L767.515 94.424ZM756.123 111.192L755.478 111.956L756.326 112.672L756.95 111.754L756.123 111.192ZM743.835 103.64L743.432 104.555L743.443 104.56L743.454 104.565L743.835 103.64ZM723.227 101.592L722.926 100.638L723.227 101.592ZM719.643 103.768L718.869 103.135L718.862 103.143L719.643 103.768ZM721.051 110.04L720.585 110.925L720.594 110.93L720.604 110.934L721.051 110.04ZM728.091 112.344L728.315 111.369L728.314 111.369L728.091 112.344ZM759.963 123.992L759.287 124.729L759.295 124.736L759.963 123.992ZM761.371 155.48L760.575 154.875L760.567 154.885L761.371 155.48ZM748.315 165.08L748.674 166.013L748.315 165.08ZM713.243 166.616L713.035 167.594L713.038 167.595L713.243 166.616ZM698.907 161.88L698.467 162.778L698.474 162.781L698.481 162.785L698.907 161.88ZM687.643 154.328L686.805 153.782L686.343 154.491L686.966 155.064L687.643 154.328ZM698.907 137.048L699.601 136.328L698.73 135.489L698.069 136.502L698.907 137.048ZM707.355 143.064L706.881 143.944L706.89 143.949L706.899 143.954L707.355 143.064ZM717.979 147.16L717.716 148.125L717.979 147.16ZM734.875 148.056L735.143 149.02L735.159 149.015L735.176 149.01L734.875 148.056ZM738.331 146.008L737.55 145.383V145.383L738.331 146.008ZM737.691 139.48L737.045 140.243L737.063 140.258L737.081 140.273L737.691 139.48ZM731.419 137.048L731.197 138.023L731.202 138.024L731.419 137.048ZM717.339 133.848L717.561 132.873L717.556 132.872L717.339 133.848ZM704.539 129.624L704.124 130.534L704.539 129.624ZM695.067 122.2L694.252 122.779L694.26 122.791L694.27 122.803L695.067 122.2ZM729.755 82.24C737.686 82.24 744.694 83.3369 750.795 85.51L751.467 83.626C745.109 81.3618 737.867 80.24 729.755 80.24V82.24ZM750.807 85.5141C756.904 87.602 762.241 90.8135 766.828 95.1506L768.202 93.6973C763.403 89.1598 757.817 85.8007 751.455 83.6219L750.807 85.5141ZM766.688 93.862L755.296 110.63L756.95 111.754L768.342 94.986L766.688 93.862ZM756.768 110.428C752.854 107.123 748.67 104.549 744.216 102.715L743.454 104.565C747.704 106.315 751.712 108.776 755.478 111.956L756.768 110.428ZM744.238 102.725C739.83 100.785 734.955 99.824 729.627 99.824V101.824C734.71 101.824 739.307 102.74 743.432 104.555L744.238 102.725ZM729.627 99.824C726.93 99.824 724.683 100.084 722.926 100.638L723.528 102.546C725.014 102.076 727.034 101.824 729.627 101.824V99.824ZM722.926 100.638C721.191 101.186 719.8 101.996 718.869 103.135L720.417 104.401C721.022 103.662 722.021 103.022 723.528 102.546L722.926 100.638ZM718.862 103.143C718.035 104.177 717.619 105.379 717.619 106.712H719.619C719.619 105.826 719.885 105.066 720.424 104.393L718.862 103.143ZM717.619 106.712C717.619 108.575 718.765 109.967 720.585 110.925L721.517 109.155C720.094 108.406 719.619 107.579 719.619 106.712H717.619ZM720.604 110.934C722.411 111.838 724.845 112.628 727.868 113.319L728.314 111.369C725.364 110.695 723.104 109.948 721.498 109.146L720.604 110.934ZM727.867 113.319L740.667 116.263L741.115 114.313L728.315 111.369L727.867 113.319ZM740.667 116.263C749.115 118.206 755.284 121.053 759.287 124.729L760.639 123.255C756.279 119.251 749.734 116.296 741.115 114.313L740.667 116.263ZM759.295 124.736C763.229 128.268 765.235 133.14 765.235 139.48H767.235C767.235 132.678 765.06 127.225 760.631 123.248L759.295 124.736ZM765.235 139.48C765.235 145.705 763.661 150.814 760.575 154.875L762.167 156.085C765.566 151.613 767.235 146.055 767.235 139.48H765.235ZM760.567 154.885C757.536 158.981 753.347 162.073 747.956 164.147L748.674 166.013C754.376 163.82 758.891 160.512 762.175 156.075L760.567 154.885ZM747.956 164.147C742.542 166.229 736.395 167.28 729.499 167.28V169.28C736.598 169.28 742.994 168.198 748.674 166.013L747.956 164.147ZM729.499 167.28C724.019 167.28 718.67 166.732 713.448 165.637L713.038 167.595C718.398 168.719 723.885 169.28 729.499 169.28V167.28ZM713.451 165.638C708.313 164.543 703.608 162.987 699.333 160.975L698.481 162.785C702.91 164.869 707.762 166.47 713.035 167.594L713.451 165.638ZM699.347 160.982C695.07 158.886 691.398 156.42 688.32 153.592L686.966 155.064C690.203 158.038 694.04 160.608 698.467 162.778L699.347 160.982ZM688.481 154.874L699.745 137.594L698.069 136.502L686.805 153.782L688.481 154.874ZM698.213 137.768C700.594 140.06 703.487 142.117 706.881 143.944L707.829 142.184C704.567 140.427 701.828 138.473 699.601 136.328L698.213 137.768ZM706.899 143.954C710.291 145.693 713.897 147.083 717.716 148.125L718.242 146.195C714.552 145.189 711.075 143.848 707.811 142.174L706.899 143.954ZM717.716 148.125C721.547 149.17 725.262 149.696 728.859 149.696V147.696C725.459 147.696 721.921 147.198 718.242 146.195L717.716 148.125ZM728.859 149.696C731.38 149.696 733.485 149.48 735.143 149.02L734.607 147.092C733.193 147.485 731.287 147.696 728.859 147.696V149.696ZM735.176 149.01C736.889 148.469 738.254 147.705 739.112 146.633L737.55 145.383C737.042 146.018 736.103 146.619 734.574 147.102L735.176 149.01ZM739.112 146.633C739.95 145.585 740.355 144.335 740.355 142.936H738.355C738.355 143.926 738.077 144.724 737.55 145.383L739.112 146.633ZM740.355 142.936C740.355 141.188 739.666 139.738 738.301 138.687L737.081 140.273C737.934 140.929 738.355 141.783 738.355 142.936H740.355ZM738.337 138.717C737.027 137.608 734.723 136.758 731.636 136.072L731.202 138.024C734.259 138.704 736.137 139.475 737.045 140.243L738.337 138.717ZM731.641 136.073L717.561 132.873L717.117 134.823L731.197 138.023L731.641 136.073ZM717.556 132.872C713.01 131.862 708.81 130.475 704.954 128.714L704.124 130.534C708.118 132.357 712.452 133.786 717.122 134.824L717.556 132.872ZM704.954 128.714C701.166 126.985 698.145 124.61 695.864 121.597L694.27 122.803C696.768 126.105 700.061 128.679 704.124 130.534L704.954 128.714ZM695.882 121.621C693.731 118.593 692.611 114.589 692.611 109.528H690.611C690.611 114.877 691.795 119.322 694.252 122.779L695.882 121.621ZM692.611 109.528C692.611 104.172 694.049 99.4689 696.91 95.3815L695.272 94.2345C692.16 98.6805 690.611 103.79 690.611 109.528H692.611ZM696.91 95.3815C699.769 91.2972 703.956 88.077 709.533 85.7467L708.761 83.9013C702.903 86.3496 698.386 89.7854 695.272 94.2345L696.91 95.3815ZM709.533 85.7467C715.098 83.421 721.829 82.24 729.755 82.24V80.24C721.639 80.24 714.631 81.4483 708.761 83.9013L709.533 85.7467ZM857.302 82.52H858.302V81.52H857.302V82.52ZM857.302 167V168H858.302V167H857.302ZM831.062 167H830.062V168H831.062V167ZM831.062 82.52V81.52H830.062V82.52H831.062ZM803.67 82.52H804.67V81.52H803.67V82.52ZM803.67 167V168H804.67V167H803.67ZM777.558 167H776.558V168H777.558V167ZM777.558 82.52V81.52H776.558V82.52H777.558ZM845.398 114.648H846.398V113.648H845.398V114.648ZM845.398 134.232V135.232H846.398V134.232H845.398ZM790.23 134.232H789.23V135.232H790.23V134.232ZM790.23 114.648V113.648H789.23V114.648H790.23ZM856.302 82.52V167H858.302V82.52H856.302ZM857.302 166H831.062V168H857.302V166ZM832.062 167V82.52H830.062V167H832.062ZM831.062 83.52H857.302V81.52H831.062V83.52ZM802.67 82.52V167H804.67V82.52H802.67ZM803.67 166H777.558V168H803.67V166ZM778.558 167V82.52H776.558V167H778.558ZM777.558 83.52H803.67V81.52H777.558V83.52ZM844.398 114.648V134.232H846.398V114.648H844.398ZM845.398 133.232H790.23V135.232H845.398V133.232ZM791.23 134.232V114.648H789.23V134.232H791.23ZM790.23 115.648H845.398V113.648H790.23V115.648ZM872.933 167H871.933V168H872.933V167ZM872.933 82.52V81.52H871.933V82.52H872.933ZM941.029 82.52H942.029V81.52H941.029V82.52ZM941.029 102.104V103.104H942.029V102.104H941.029ZM899.045 102.104V101.104H898.045V102.104H899.045ZM899.045 115.8H898.045V116.8H899.045V115.8ZM932.581 115.8H933.581V114.8H932.581V115.8ZM932.581 133.976V134.976H933.581V133.976H932.581ZM899.045 133.976V132.976H898.045V133.976H899.045ZM899.045 147.416H898.045V148.416H899.045V147.416ZM942.693 147.416H943.693V146.416H942.693V147.416ZM942.693 167V168H943.693V167H942.693ZM873.933 167V82.52H871.933V167H873.933ZM872.933 83.52H941.029V81.52H872.933V83.52ZM940.029 82.52V102.104H942.029V82.52H940.029ZM941.029 101.104H899.045V103.104H941.029V101.104ZM898.045 102.104V115.8H900.045V102.104H898.045ZM899.045 116.8H932.581V114.8H899.045V116.8ZM931.581 115.8V133.976H933.581V115.8H931.581ZM932.581 132.976H899.045V134.976H932.581V132.976ZM898.045 133.976V147.416H900.045V133.976H898.045ZM899.045 148.416H942.693V146.416H899.045V148.416ZM941.693 147.416V167H943.693V147.416H941.693ZM942.693 166H872.933V168H942.693V166ZM1022.3 93.528L1021.57 94.2136V94.2136L1022.3 93.528ZM1022.3 155.992L1023.03 156.678L1023.03 156.673L1022.3 155.992ZM953.308 167H952.308V168H953.308V167ZM953.308 82.52V81.52H952.308V82.52H953.308ZM1002.08 142.296L1002.91 142.846L1002.92 142.838L1002.08 142.296ZM1002.08 107.352L1001.24 107.894L1001.24 107.902L1002.08 107.352ZM979.42 101.592V100.592H978.42V101.592H979.42ZM979.42 147.928H978.42V148.928H979.42V147.928ZM992.092 83.52C1005.13 83.52 1014.9 87.1329 1021.57 94.2136L1023.03 92.8424C1015.87 85.2457 1005.5 81.52 992.092 81.52V83.52ZM1021.57 94.2136C1028.26 101.311 1031.67 111.444 1031.67 124.76H1033.67C1033.67 111.11 1030.17 100.422 1023.03 92.8424L1021.57 94.2136ZM1031.67 124.76C1031.67 137.988 1028.26 148.125 1021.57 155.311L1023.03 156.673C1030.17 149.011 1033.67 138.327 1033.67 124.76H1031.67ZM1021.57 155.306C1014.9 162.387 1005.13 166 992.092 166V168C1005.5 168 1015.87 164.274 1023.03 156.678L1021.57 155.306ZM992.092 166H953.308V168H992.092V166ZM954.308 167V82.52H952.308V167H954.308ZM953.308 83.52H992.092V81.52H953.308V83.52ZM988.892 148.928C995.395 148.928 1000.18 146.986 1002.91 142.846L1001.24 141.746C999.02 145.115 995.018 146.928 988.892 146.928V148.928ZM1002.92 142.838C1005.55 138.758 1006.79 132.681 1006.79 124.76H1004.79C1004.79 132.541 1003.56 138.154 1001.24 141.754L1002.92 142.838ZM1006.79 124.76C1006.79 116.842 1005.55 110.801 1002.91 106.802L1001.24 107.902C1003.55 111.412 1004.79 116.977 1004.79 124.76H1006.79ZM1002.92 106.81C1000.19 102.582 995.404 100.592 988.892 100.592V102.592C995.01 102.592 999.011 104.442 1001.24 107.894L1002.92 106.81ZM988.892 100.592H979.42V102.592H988.892V100.592ZM978.42 101.592V147.928H980.42V101.592H978.42ZM979.42 148.928H988.892V146.928H979.42V148.928Z" fill="url(#paint1_linear_201_523)" fill-opacity="0.37" mask="url(#path-1-outside-1_201_523)"/>
<mask id="path-3-outside-2_201_523" maskUnits="userSpaceOnUse" x="0" y="53" width="1037" height="96" fill="black">
<rect fill="white" y="53" width="1037" height="96"/>
<path d="M43.136 144.28C35.712 144.28 29.0987 142.659 23.296 139.416C17.4933 136.173 12.928 131.309 9.6 124.824C6.272 118.339 4.608 110.403 4.608 101.016C4.608 91.8 6.31467 83.9493 9.728 77.464C13.2267 70.8933 18.2187 65.9013 24.704 62.488C31.1893 58.9893 38.8693 57.24 47.744 57.24C57.728 57.24 65.7493 59.032 71.808 62.616C77.952 66.2 82.688 71.8747 86.016 79.64L61.696 88.728C60.8427 84.5467 59.2213 81.6027 56.832 79.896C54.4427 78.104 51.456 77.208 47.872 77.208C44.2027 77.208 41.1307 78.104 38.656 79.896C36.2667 81.6027 34.4747 84.2053 33.28 87.704C32.0853 91.2027 31.488 95.5547 31.488 100.76C31.488 106.392 32.128 111 33.408 114.584C34.7733 118.168 36.8213 120.813 39.552 122.52C42.2827 124.141 45.6533 124.952 49.664 124.952C51.712 124.952 53.5893 124.739 55.296 124.312C57.0027 123.8 58.496 123.075 59.776 122.136C61.1413 121.197 62.1653 120.045 62.848 118.68C63.5307 117.229 63.872 115.565 63.872 113.688V113.048H47.232V96.28H85.888V143H68.352L66.304 121.624L70.4 125.72C68.864 131.693 65.792 136.301 61.184 139.544C56.576 142.701 50.56 144.28 43.136 144.28ZM100.183 143V58.52H168.279V78.104H126.295V91.8H159.831V109.976H126.295V123.416H169.943V143H100.183ZM255.694 58.52V78.104H228.814V143H202.702V78.104H175.566V58.52H255.694ZM366.776 78.104H324.92V92.824H358.456V112.408H324.92V143H298.808V58.52H366.776V78.104ZM454.364 58.52V107.544C454.364 119.832 451.079 129.048 444.508 135.192C437.937 141.251 428.124 144.28 415.068 144.28C401.927 144.28 392.071 141.251 385.5 135.192C378.929 129.048 375.644 119.832 375.644 107.544V58.52H401.884V108.952C401.884 114.072 402.993 117.912 405.212 120.472C407.431 123.032 410.716 124.312 415.068 124.312C419.42 124.312 422.705 123.032 424.924 120.472C427.143 117.912 428.252 114.072 428.252 108.952V58.52H454.364ZM511.572 58.52C522.068 58.52 530.175 60.952 535.892 65.816C541.695 70.5947 544.596 76.9947 544.596 85.016C544.596 93.976 541.78 100.76 536.148 105.368C530.516 109.976 522.409 112.28 511.828 112.28L509.268 113.688H493.908V143H468.308V58.52H511.572ZM507.348 95.896C511.017 95.896 513.748 95.2133 515.54 93.848C517.417 92.3973 518.356 90.0507 518.356 86.808C518.356 83.5653 517.417 81.2187 515.54 79.768C513.748 78.3173 511.017 77.592 507.348 77.592H493.908V95.896H507.348ZM522.836 101.4L549.46 143H520.916L500.308 106.008L522.836 101.4ZM637.299 58.52V143H608.627L585.587 101.144L580.211 89.752H579.955L580.467 106.392V143H557.683V58.52H586.227L609.267 100.376L614.771 111.768H614.899L614.387 95.128V58.52H637.299ZM679.045 58.52V143H652.933V58.52H679.045ZM729.755 57.24C737.776 57.24 744.902 58.3493 751.131 60.568C757.36 62.7013 762.822 65.9867 767.515 70.424L756.123 87.192C752.283 83.9493 748.187 81.432 743.835 79.64C739.568 77.7627 734.832 76.824 729.627 76.824C726.982 76.824 724.848 77.08 723.227 77.592C721.606 78.104 720.411 78.8293 719.643 79.768C718.96 80.6213 718.619 81.6027 718.619 82.712C718.619 84.0773 719.43 85.1867 721.051 86.04C722.758 86.8933 725.104 87.6613 728.091 88.344L740.891 91.288C749.424 93.2507 755.782 96.152 759.963 99.992C764.144 103.747 766.235 108.909 766.235 115.48C766.235 121.88 764.614 127.213 761.371 131.48C758.214 135.747 753.862 138.947 748.315 141.08C742.768 143.213 736.496 144.28 729.499 144.28C723.952 144.28 718.534 143.725 713.243 142.616C708.038 141.507 703.259 139.928 698.907 137.88C694.555 135.747 690.8 133.229 687.643 130.328L698.907 113.048C701.211 115.267 704.027 117.272 707.355 119.064C710.683 120.771 714.224 122.136 717.979 123.16C721.734 124.184 725.36 124.696 728.859 124.696C731.334 124.696 733.339 124.483 734.875 124.056C736.496 123.544 737.648 122.861 738.331 122.008C739.014 121.155 739.355 120.131 739.355 118.936C739.355 117.485 738.8 116.333 737.691 115.48C736.582 114.541 734.491 113.731 731.419 113.048L717.339 109.848C712.731 108.824 708.464 107.416 704.539 105.624C700.614 103.832 697.456 101.357 695.067 98.2C692.763 94.9573 691.611 90.7333 691.611 85.528C691.611 79.9813 693.104 75.0747 696.091 70.808C699.078 66.5413 703.43 63.2133 709.147 60.824C714.864 58.4347 721.734 57.24 729.755 57.24ZM857.302 58.52V143H831.062V58.52H857.302ZM803.67 58.52V143H777.558V58.52H803.67ZM845.398 90.648V110.232H790.23V90.648H845.398ZM872.933 143V58.52H941.029V78.104H899.045V91.8H932.581V109.976H899.045V123.416H942.693V143H872.933ZM992.092 58.52C1005.32 58.52 1015.39 62.1893 1022.3 69.528C1029.21 76.8667 1032.67 87.2773 1032.67 100.76C1032.67 114.157 1029.21 124.568 1022.3 131.992C1015.39 139.331 1005.32 143 992.092 143H953.308V58.52H992.092ZM988.892 123.928C995.207 123.928 999.601 122.051 1002.08 118.296C1004.55 114.456 1005.79 108.611 1005.79 100.76C1005.79 92.9093 1004.55 87.1067 1002.08 83.352C999.601 79.512 995.207 77.592 988.892 77.592H979.42V123.928H988.892Z"/>
</mask>
<path d="M23.296 139.416L25.2473 135.924H25.2473L23.296 139.416ZM9.6 124.824L6.04122 126.65L9.6 124.824ZM9.728 77.464L6.19732 75.584L6.1928 75.5925L6.18833 75.601L9.728 77.464ZM24.704 62.488L26.567 66.0277L26.5851 66.0181L26.6032 66.0084L24.704 62.488ZM71.808 62.616L69.7715 66.0587L69.782 66.065L69.7925 66.0711L71.808 62.616ZM86.016 79.64L87.4162 83.3869L91.3446 81.9189L89.6926 78.0643L86.016 79.64ZM61.696 88.728L57.7768 89.5278L58.7125 94.113L63.0962 92.4749L61.696 88.728ZM56.832 79.896L54.432 83.096L54.4692 83.1239L54.507 83.1509L56.832 79.896ZM38.656 79.896L40.981 83.1509L40.9915 83.1434L41.002 83.1358L38.656 79.896ZM33.28 87.704L37.0654 88.9966L33.28 87.704ZM33.408 114.584L29.641 115.929L29.6551 115.969L29.67 116.008L33.408 114.584ZM39.552 122.52L37.432 125.912L37.4707 125.936L37.5098 125.959L39.552 122.52ZM55.296 124.312L56.2661 128.193L56.3563 128.17L56.4454 128.143L55.296 124.312ZM59.776 122.136L57.5099 118.84L57.4597 118.874L57.4105 118.91L59.776 122.136ZM62.848 118.68L66.4257 120.469L66.447 120.426L66.4673 120.383L62.848 118.68ZM63.872 113.048H67.872V109.048H63.872V113.048ZM47.232 113.048H43.232V117.048H47.232V113.048ZM47.232 96.28V92.28H43.232V96.28H47.232ZM85.888 96.28H89.888V92.28H85.888V96.28ZM85.888 143V147H89.888V143H85.888ZM68.352 143L64.3702 143.381L64.7169 147H68.352V143ZM66.304 121.624L69.1324 118.796L61.2605 110.924L62.3222 122.005L66.304 121.624ZM70.4 125.72L74.274 126.716L74.8424 124.506L73.2284 122.892L70.4 125.72ZM61.184 139.544L63.4449 142.844L63.4655 142.83L63.486 142.815L61.184 139.544ZM43.136 140.28C36.3137 140.28 30.3863 138.796 25.2473 135.924L21.3447 142.908C27.811 146.521 35.1103 148.28 43.136 148.28V140.28ZM25.2473 135.924C20.1991 133.103 16.1631 128.852 13.1588 122.998L6.04122 126.65C9.69295 133.766 14.7876 139.244 21.3447 142.908L25.2473 135.924ZM13.1588 122.998C10.1921 117.216 8.608 109.945 8.608 101.016H0.608C0.608 110.861 2.35195 119.461 6.04122 126.65L13.1588 122.998ZM8.608 101.016C8.608 92.2855 10.2247 85.1087 13.2677 79.327L6.18833 75.601C2.40468 82.7899 0.608 91.3145 0.608 101.016H8.608ZM13.2587 79.344C16.3867 73.4693 20.8032 69.0612 26.567 66.0277L22.841 58.9483C15.6341 62.7414 10.0666 68.3173 6.19732 75.584L13.2587 79.344ZM26.6032 66.0084C32.3969 62.8828 39.3976 61.24 47.744 61.24V53.24C38.341 53.24 29.9817 55.0958 22.8048 58.9676L26.6032 66.0084ZM47.744 61.24C57.2955 61.24 64.535 62.9611 69.7715 66.0587L73.8446 59.1733C66.9636 55.1029 58.1605 53.24 47.744 53.24V61.24ZM69.7925 66.0711C75.0641 69.1462 79.2839 74.0862 82.3394 81.2157L89.6926 78.0643C86.0921 69.6631 80.8399 63.2538 73.8235 59.1609L69.7925 66.0711ZM84.6158 75.8931L60.2958 84.9811L63.0962 92.4749L87.4162 83.3869L84.6158 75.8931ZM65.6152 87.9282C64.6505 83.2009 62.6756 79.1544 59.157 76.6411L54.507 83.1509C55.7671 84.051 57.0349 85.8924 57.7768 89.5278L65.6152 87.9282ZM59.232 76.696C56.0202 74.2872 52.1435 73.208 47.872 73.208V81.208C50.7685 81.208 52.8651 81.9208 54.432 83.096L59.232 76.696ZM47.872 73.208C43.5335 73.208 39.5952 74.2773 36.31 76.6562L41.002 83.1358C42.6661 81.9307 44.8719 81.208 47.872 81.208V73.208ZM36.331 76.6411C33.1038 78.9463 30.8888 82.3285 29.4946 86.4114L37.0654 88.9966C38.0606 86.0822 39.4296 84.2591 40.981 83.1509L36.331 76.6411ZM29.4946 86.4114C28.1129 90.4579 27.488 95.2798 27.488 100.76H35.488C35.488 95.8295 36.0578 91.9474 37.0654 88.9966L29.4946 86.4114ZM27.488 100.76C27.488 106.652 28.1517 111.759 29.641 115.929L37.175 113.239C36.1043 110.241 35.488 106.132 35.488 100.76H27.488ZM29.67 116.008C31.2846 120.246 33.8283 123.66 37.432 125.912L41.672 119.128C39.8143 117.967 38.2621 116.09 37.146 113.16L29.67 116.008ZM37.5098 125.959C41.0013 128.032 45.1212 128.952 49.664 128.952V120.952C46.1855 120.952 43.564 120.25 41.5942 119.081L37.5098 125.959ZM49.664 128.952C51.987 128.952 54.1954 128.71 56.2661 128.193L54.3259 120.431C52.9833 120.767 51.437 120.952 49.664 120.952V128.952ZM56.4454 128.143C58.5359 127.516 60.4514 126.601 62.1415 125.362L57.4105 118.91C56.5406 119.548 55.4694 120.084 54.1466 120.481L56.4454 128.143ZM62.0421 125.432C63.9162 124.144 65.4149 122.49 66.4257 120.469L59.2703 116.891C58.9158 117.6 58.3665 118.251 57.5099 118.84L62.0421 125.432ZM66.4673 120.383C67.44 118.316 67.872 116.054 67.872 113.688H59.872C59.872 115.076 59.6213 116.143 59.2287 116.977L66.4673 120.383ZM67.872 113.688V113.048H59.872V113.688H67.872ZM63.872 109.048H47.232V117.048H63.872V109.048ZM51.232 113.048V96.28H43.232V113.048H51.232ZM47.232 100.28H85.888V92.28H47.232V100.28ZM81.888 96.28V143H89.888V96.28H81.888ZM85.888 139H68.352V147H85.888V139ZM72.3338 142.619L70.2858 121.243L62.3222 122.005L64.3702 143.381L72.3338 142.619ZM63.4756 124.452L67.5716 128.548L73.2284 122.892L69.1324 118.796L63.4756 124.452ZM66.526 124.724C65.2028 129.87 62.6366 133.631 58.882 136.273L63.486 142.815C68.9474 138.972 72.5252 133.517 74.274 126.716L66.526 124.724ZM58.9231 136.244C55.168 138.817 50.0143 140.28 43.136 140.28V148.28C51.1057 148.28 57.984 146.585 63.4449 142.844L58.9231 136.244ZM100.183 143H96.183V147H100.183V143ZM100.183 58.52V54.52H96.183V58.52H100.183ZM168.279 58.52H172.279V54.52H168.279V58.52ZM168.279 78.104V82.104H172.279V78.104H168.279ZM126.295 78.104V74.104H122.295V78.104H126.295ZM126.295 91.8H122.295V95.8H126.295V91.8ZM159.831 91.8H163.831V87.8H159.831V91.8ZM159.831 109.976V113.976H163.831V109.976H159.831ZM126.295 109.976V105.976H122.295V109.976H126.295ZM126.295 123.416H122.295V127.416H126.295V123.416ZM169.943 123.416H173.943V119.416H169.943V123.416ZM169.943 143V147H173.943V143H169.943ZM104.183 143V58.52H96.183V143H104.183ZM100.183 62.52H168.279V54.52H100.183V62.52ZM164.279 58.52V78.104H172.279V58.52H164.279ZM168.279 74.104H126.295V82.104H168.279V74.104ZM122.295 78.104V91.8H130.295V78.104H122.295ZM126.295 95.8H159.831V87.8H126.295V95.8ZM155.831 91.8V109.976H163.831V91.8H155.831ZM159.831 105.976H126.295V113.976H159.831V105.976ZM122.295 109.976V123.416H130.295V109.976H122.295ZM126.295 127.416H169.943V119.416H126.295V127.416ZM165.943 123.416V143H173.943V123.416H165.943ZM169.943 139H100.183V147H169.943V139ZM255.694 58.52H259.694V54.52H255.694V58.52ZM255.694 78.104V82.104H259.694V78.104H255.694ZM228.814 78.104V74.104H224.814V78.104H228.814ZM228.814 143V147H232.814V143H228.814ZM202.702 143H198.702V147H202.702V143ZM202.702 78.104H206.702V74.104H202.702V78.104ZM175.566 78.104H171.566V82.104H175.566V78.104ZM175.566 58.52V54.52H171.566V58.52H175.566ZM251.694 58.52V78.104H259.694V58.52H251.694ZM255.694 74.104H228.814V82.104H255.694V74.104ZM224.814 78.104V143H232.814V78.104H224.814ZM228.814 139H202.702V147H228.814V139ZM206.702 143V78.104H198.702V143H206.702ZM202.702 74.104H175.566V82.104H202.702V74.104ZM179.566 78.104V58.52H171.566V78.104H179.566ZM175.566 62.52H255.694V54.52H175.566V62.52ZM366.776 78.104V82.104H370.776V78.104H366.776ZM324.92 78.104V74.104H320.92V78.104H324.92ZM324.92 92.824H320.92V96.824H324.92V92.824ZM358.456 92.824H362.456V88.824H358.456V92.824ZM358.456 112.408V116.408H362.456V112.408H358.456ZM324.92 112.408V108.408H320.92V112.408H324.92ZM324.92 143V147H328.92V143H324.92ZM298.808 143H294.808V147H298.808V143ZM298.808 58.52V54.52H294.808V58.52H298.808ZM366.776 58.52H370.776V54.52H366.776V58.52ZM366.776 74.104H324.92V82.104H366.776V74.104ZM320.92 78.104V92.824H328.92V78.104H320.92ZM324.92 96.824H358.456V88.824H324.92V96.824ZM354.456 92.824V112.408H362.456V92.824H354.456ZM358.456 108.408H324.92V116.408H358.456V108.408ZM320.92 112.408V143H328.92V112.408H320.92ZM324.92 139H298.808V147H324.92V139ZM302.808 143V58.52H294.808V143H302.808ZM298.808 62.52H366.776V54.52H298.808V62.52ZM362.776 58.52V78.104H370.776V58.52H362.776ZM454.364 58.52H458.364V54.52H454.364V58.52ZM444.508 135.192L447.22 138.133L447.23 138.123L447.24 138.114L444.508 135.192ZM385.5 135.192L382.768 138.114L382.778 138.123L382.788 138.133L385.5 135.192ZM375.644 58.52V54.52H371.644V58.52H375.644ZM401.884 58.52H405.884V54.52H401.884V58.52ZM424.924 120.472L427.947 123.092L424.924 120.472ZM428.252 58.52V54.52H424.252V58.52H428.252ZM450.364 58.52V107.544H458.364V58.52H450.364ZM450.364 107.544C450.364 119.144 447.275 127.128 441.776 132.27L447.24 138.114C454.882 130.968 458.364 120.52 458.364 107.544H450.364ZM441.796 132.251C436.243 137.372 427.576 140.28 415.068 140.28V148.28C428.672 148.28 439.632 145.129 447.22 138.133L441.796 132.251ZM415.068 140.28C402.466 140.28 393.761 137.368 388.212 132.251L382.788 138.133C390.38 145.133 401.387 148.28 415.068 148.28V140.28ZM388.232 132.27C382.733 127.128 379.644 119.144 379.644 107.544H371.644C371.644 120.52 375.126 130.968 382.768 138.114L388.232 132.27ZM379.644 107.544V58.52H371.644V107.544H379.644ZM375.644 62.52H401.884V54.52H375.644V62.52ZM397.884 58.52V108.952H405.884V58.52H397.884ZM397.884 108.952C397.884 114.559 399.087 119.512 402.189 123.092L408.235 117.852C406.9 116.312 405.884 113.585 405.884 108.952H397.884ZM402.189 123.092C405.372 126.764 409.91 128.312 415.068 128.312V120.312C411.522 120.312 409.489 119.3 408.235 117.852L402.189 123.092ZM415.068 128.312C420.226 128.312 424.764 126.764 427.947 123.092L421.901 117.852C420.647 119.3 418.614 120.312 415.068 120.312V128.312ZM427.947 123.092C431.049 119.512 432.252 114.559 432.252 108.952H424.252C424.252 113.585 423.236 116.312 421.901 117.852L427.947 123.092ZM432.252 108.952V58.52H424.252V108.952H432.252ZM428.252 62.52H454.364V54.52H428.252V62.52ZM535.892 65.816L533.3 68.8626L533.324 68.8834L533.349 68.9037L535.892 65.816ZM536.148 105.368L538.681 108.464L536.148 105.368ZM511.828 112.28V108.28H510.801L509.9 108.775L511.828 112.28ZM509.268 113.688V117.688H510.295L511.196 117.193L509.268 113.688ZM493.908 113.688V109.688H489.908V113.688H493.908ZM493.908 143V147H497.908V143H493.908ZM468.308 143H464.308V147H468.308V143ZM468.308 58.52V54.52H464.308V58.52H468.308ZM515.54 93.848L517.964 97.0297L517.975 97.0215L517.986 97.0131L515.54 93.848ZM515.54 79.768L513.023 82.877L513.058 82.9055L513.094 82.9331L515.54 79.768ZM493.908 77.592V73.592H489.908V77.592H493.908ZM493.908 95.896H489.908V99.896H493.908V95.896ZM522.836 101.4L526.205 99.2438L524.725 96.9308L522.034 97.4811L522.836 101.4ZM549.46 143V147H556.769L552.829 140.844L549.46 143ZM520.916 143L517.422 144.947L518.566 147H520.916V143ZM500.308 106.008L499.506 102.089L494.156 103.184L496.814 107.955L500.308 106.008ZM511.572 62.52C521.493 62.52 528.548 64.8199 533.3 68.8626L538.484 62.7694C531.801 57.0841 522.643 54.52 511.572 54.52V62.52ZM533.349 68.9037C538.161 72.8661 540.596 78.0981 540.596 85.016H548.596C548.596 75.8912 545.229 68.3233 538.435 62.7283L533.349 68.9037ZM540.596 85.016C540.596 93.0808 538.106 98.5977 533.615 102.272L538.681 108.464C545.454 102.922 548.596 94.8712 548.596 85.016H540.596ZM533.615 102.272C528.96 106.081 521.894 108.28 511.828 108.28V116.28C522.925 116.28 532.072 113.871 538.681 108.464L533.615 102.272ZM509.9 108.775L507.34 110.183L511.196 117.193L513.756 115.785L509.9 108.775ZM509.268 109.688H493.908V117.688H509.268V109.688ZM489.908 113.688V143H497.908V113.688H489.908ZM493.908 139H468.308V147H493.908V139ZM472.308 143V58.52H464.308V143H472.308ZM468.308 62.52H511.572V54.52H468.308V62.52ZM507.348 99.896C511.386 99.896 515.158 99.1676 517.964 97.0297L513.116 90.6663C512.338 91.2591 510.649 91.896 507.348 91.896V99.896ZM517.986 97.0131C521.172 94.5507 522.356 90.8038 522.356 86.808H514.356C514.356 89.2976 513.662 90.244 513.094 90.6829L517.986 97.0131ZM522.356 86.808C522.356 82.8122 521.172 79.0653 517.986 76.6029L513.094 82.9331C513.662 83.372 514.356 84.3184 514.356 86.808H522.356ZM518.057 76.659C515.239 74.3778 511.426 73.592 507.348 73.592V81.592C510.609 81.592 512.257 82.2568 513.023 82.877L518.057 76.659ZM507.348 73.592H493.908V81.592H507.348V73.592ZM489.908 77.592V95.896H497.908V77.592H489.908ZM493.908 99.896H507.348V91.896H493.908V99.896ZM519.467 103.556L546.091 145.156L552.829 140.844L526.205 99.2438L519.467 103.556ZM549.46 139H520.916V147H549.46V139ZM524.41 141.053L503.802 104.061L496.814 107.955L517.422 144.947L524.41 141.053ZM501.11 109.927L523.638 105.319L522.034 97.4811L499.506 102.089L501.11 109.927ZM637.299 58.52H641.299V54.52H637.299V58.52ZM637.299 143V147H641.299V143H637.299ZM608.627 143L605.123 144.929L606.263 147H608.627V143ZM585.587 101.144L581.97 102.851L582.023 102.964L582.083 103.073L585.587 101.144ZM580.211 89.752L583.828 88.0449L582.746 85.752H580.211V89.752ZM579.955 89.752V85.752H575.83L575.957 89.875L579.955 89.752ZM580.467 106.392H584.467V106.33L584.465 106.269L580.467 106.392ZM580.467 143V147H584.467V143H580.467ZM557.683 143H553.683V147H557.683V143ZM557.683 58.52V54.52H553.683V58.52H557.683ZM586.227 58.52L589.731 56.5911L588.591 54.52H586.227V58.52ZM609.267 100.376L612.869 98.6359L612.822 98.5402L612.771 98.4471L609.267 100.376ZM614.771 111.768L611.169 113.508L612.261 115.768H614.771V111.768ZM614.899 111.768V115.768H619.024L618.897 111.645L614.899 111.768ZM614.387 95.128H610.387V95.1895L610.389 95.251L614.387 95.128ZM614.387 58.52V54.52H610.387V58.52H614.387ZM633.299 58.52V143H641.299V58.52H633.299ZM637.299 139H608.627V147H637.299V139ZM612.131 141.071L589.091 99.2151L582.083 103.073L605.123 144.929L612.131 141.071ZM589.204 99.4369L583.828 88.0449L576.594 91.4591L581.97 102.851L589.204 99.4369ZM580.211 85.752H579.955V93.752H580.211V85.752ZM575.957 89.875L576.469 106.515L584.465 106.269L583.953 89.629L575.957 89.875ZM576.467 106.392V143H584.467V106.392H576.467ZM580.467 139H557.683V147H580.467V139ZM561.683 143V58.52H553.683V143H561.683ZM557.683 62.52H586.227V54.52H557.683V62.52ZM582.723 60.4489L605.763 102.305L612.771 98.4471L589.731 56.5911L582.723 60.4489ZM605.665 102.116L611.169 113.508L618.373 110.028L612.869 98.6359L605.665 102.116ZM614.771 115.768H614.899V107.768H614.771V115.768ZM618.897 111.645L618.385 95.005L610.389 95.251L610.901 111.891L618.897 111.645ZM618.387 95.128V58.52H610.387V95.128H618.387ZM614.387 62.52H637.299V54.52H614.387V62.52ZM679.045 58.52H683.045V54.52H679.045V58.52ZM679.045 143V147H683.045V143H679.045ZM652.933 143H648.933V147H652.933V143ZM652.933 58.52V54.52H648.933V58.52H652.933ZM675.045 58.52V143H683.045V58.52H675.045ZM679.045 139H652.933V147H679.045V139ZM656.933 143V58.52H648.933V143H656.933ZM652.933 62.52H679.045V54.52H652.933V62.52ZM751.131 60.568L749.789 64.3361L749.812 64.3443L749.835 64.3522L751.131 60.568ZM767.515 70.424L770.824 72.6719L772.737 69.8561L770.263 67.5174L767.515 70.424ZM756.123 87.192L753.542 90.2481L756.936 93.1137L759.432 89.4399L756.123 87.192ZM743.835 79.64L742.224 83.3013L742.268 83.3205L742.312 83.3387L743.835 79.64ZM723.227 77.592L722.022 73.7777V73.7777L723.227 77.592ZM719.643 79.768L716.547 77.235L716.533 77.2521L716.52 77.2692L719.643 79.768ZM721.051 86.04L719.188 89.5797L719.225 89.5991L719.262 89.6177L721.051 86.04ZM728.091 88.344L728.988 84.4458L728.982 84.4446L728.091 88.344ZM759.963 99.992L757.257 102.938L757.274 102.953L757.291 102.968L759.963 99.992ZM761.371 131.48L758.186 129.06L758.171 129.08L758.156 129.101L761.371 131.48ZM748.315 141.08L749.751 144.813L748.315 141.08ZM713.243 142.616L712.409 146.528L712.422 146.531L713.243 142.616ZM698.907 137.88L697.146 141.472L697.175 141.486L697.204 141.499L698.907 137.88ZM687.643 130.328L684.292 128.144L682.442 130.981L684.937 133.273L687.643 130.328ZM698.907 113.048L701.682 110.167L698.197 106.812L695.556 110.864L698.907 113.048ZM707.355 119.064L705.459 122.586L705.494 122.605L705.53 122.623L707.355 119.064ZM717.979 123.16L716.927 127.019L717.979 123.16ZM734.875 124.056L735.946 127.91L736.013 127.891L736.08 127.87L734.875 124.056ZM738.331 122.008L735.208 119.509V119.509L738.331 122.008ZM737.691 115.48L735.107 118.534L735.178 118.594L735.252 118.65L737.691 115.48ZM731.419 113.048L730.533 116.949L730.542 116.951L730.551 116.953L731.419 113.048ZM717.339 109.848L718.225 105.947L718.216 105.945L718.207 105.943L717.339 109.848ZM704.539 105.624L702.878 109.263L704.539 105.624ZM695.067 98.2L691.806 100.517L691.841 100.566L691.877 100.614L695.067 98.2ZM729.755 61.24C737.413 61.24 744.071 62.2996 749.789 64.3361L752.473 56.7999C745.732 54.399 738.139 53.24 729.755 53.24V61.24ZM749.835 64.3522C755.534 66.3039 760.498 69.2941 764.767 73.3306L770.263 67.5174C765.146 62.6793 759.187 59.0987 752.427 56.7838L749.835 64.3522ZM764.206 68.1761L752.814 84.9441L759.432 89.4399L770.824 72.6719L764.206 68.1761ZM758.704 84.1359C754.568 80.6436 750.119 77.9017 745.358 75.9413L742.312 83.3387C746.255 84.9623 749.998 87.255 753.542 90.2481L758.704 84.1359ZM745.446 75.9787C740.615 73.8533 735.322 72.824 729.627 72.824V80.824C734.343 80.824 738.521 81.672 742.224 83.3013L745.446 75.9787ZM729.627 72.824C726.773 72.824 724.187 73.0941 722.022 73.7777L724.432 81.4063C725.51 81.0659 727.19 80.824 729.627 80.824V72.824ZM722.022 73.7777C719.946 74.4334 717.968 75.4979 716.547 77.235L722.739 82.301C722.854 82.1607 723.265 81.7746 724.432 81.4063L722.022 73.7777ZM716.52 77.2692C715.26 78.8434 714.619 80.7093 714.619 82.712H722.619C722.619 82.496 722.66 82.3993 722.766 82.2668L716.52 77.2692ZM714.619 82.712C714.619 86.0696 716.772 88.308 719.188 89.5797L722.914 82.5003C722.7 82.3878 722.57 82.2965 722.499 82.2392C722.43 82.1831 722.428 82.1688 722.457 82.2079C722.488 82.251 722.536 82.3312 722.572 82.4428C722.609 82.5546 722.619 82.6511 722.619 82.712H714.619ZM719.262 89.6177C721.373 90.6729 724.065 91.527 727.2 92.2434L728.982 84.4446C726.144 83.7957 724.143 83.1138 722.84 82.4623L719.262 89.6177ZM727.194 92.2422L739.994 95.1862L741.788 87.3898L728.988 84.4458L727.194 92.2422ZM739.994 95.1862C748.187 97.0706 753.791 99.7545 757.257 102.938L762.669 97.0459C757.773 92.5495 750.661 89.4307 741.788 87.3898L739.994 95.1862ZM757.291 102.968C760.482 105.834 762.235 109.834 762.235 115.48H770.235C770.235 107.985 767.807 101.66 762.635 97.0158L757.291 102.968ZM762.235 115.48C762.235 121.181 760.803 125.617 758.186 129.06L764.556 133.9C768.424 128.81 770.235 122.579 770.235 115.48H762.235ZM758.156 129.101C755.503 132.685 751.804 135.453 746.879 137.347L749.751 144.813C755.92 142.441 760.924 138.809 764.586 133.859L758.156 129.101ZM746.879 137.347C741.864 139.275 736.091 140.28 729.499 140.28V148.28C736.902 148.28 743.673 147.151 749.751 144.813L746.879 137.347ZM729.499 140.28C724.221 140.28 719.078 139.752 714.064 138.701L712.422 146.531C717.99 147.698 723.684 148.28 729.499 148.28V140.28ZM714.077 138.704C709.14 137.652 704.657 136.165 700.61 134.261L697.204 141.499C701.861 143.691 706.935 145.362 712.409 146.528L714.077 138.704ZM700.668 134.288C696.616 132.302 693.19 129.993 690.349 127.383L684.937 133.273C688.411 136.466 692.494 139.191 697.146 141.472L700.668 134.288ZM690.994 132.512L702.258 115.232L695.556 110.864L684.292 128.144L690.994 132.512ZM696.132 115.929C698.741 118.441 701.867 120.652 705.459 122.586L709.251 115.542C706.188 113.892 703.681 112.092 701.682 110.167L696.132 115.929ZM705.53 122.623C709.114 124.461 712.915 125.925 716.927 127.019L719.031 119.301C715.533 118.347 712.252 117.08 709.18 115.505L705.53 122.623ZM716.927 127.019C720.986 128.126 724.967 128.696 728.859 128.696V120.696C725.753 120.696 722.481 120.242 719.031 119.301L716.927 127.019ZM728.859 128.696C731.52 128.696 733.925 128.471 735.946 127.91L733.804 120.202C732.753 120.494 731.148 120.696 728.859 120.696V128.696ZM736.08 127.87C738.068 127.242 740.072 126.235 741.454 124.507L735.208 119.509C735.227 119.485 735.167 119.57 734.916 119.719C734.662 119.869 734.264 120.054 733.67 120.242L736.08 127.87ZM741.454 124.507C742.758 122.877 743.355 120.949 743.355 118.936H735.355C735.355 119.313 735.269 119.433 735.208 119.509L741.454 124.507ZM743.355 118.936C743.355 116.296 742.265 113.952 740.13 112.31L735.252 118.65C735.311 118.696 735.336 118.724 735.341 118.73C735.345 118.735 735.34 118.73 735.335 118.719C735.33 118.709 735.333 118.711 735.339 118.738C735.345 118.766 735.355 118.829 735.355 118.936H743.355ZM740.275 112.426C738.361 110.807 735.417 109.839 732.287 109.143L730.551 116.953C733.565 117.622 734.802 118.275 735.107 118.534L740.275 112.426ZM732.305 109.147L718.225 105.947L716.453 113.749L730.533 116.949L732.305 109.147ZM718.207 105.943C713.846 104.974 709.849 103.651 706.2 101.985L702.878 109.263C707.08 111.181 711.615 112.674 716.471 113.753L718.207 105.943ZM706.2 101.985C702.823 100.443 700.211 98.3683 698.257 95.7862L691.877 100.614C694.702 104.346 698.405 107.221 702.878 109.263L706.2 101.985ZM698.328 95.8832C696.634 93.4988 695.611 90.1575 695.611 85.528H687.611C687.611 91.3091 688.892 96.4158 691.806 100.517L698.328 95.8832ZM695.611 85.528C695.611 80.7457 696.883 76.6514 699.368 73.1018L692.814 68.5141C689.325 73.4979 687.611 79.217 687.611 85.528H695.611ZM699.368 73.1018C701.844 69.5649 705.537 66.6681 710.689 64.5147L707.605 57.1333C701.323 59.7586 696.312 63.5178 692.814 68.5141L699.368 73.1018ZM710.689 64.5147C715.797 62.38 722.114 61.24 729.755 61.24V53.24C721.353 53.24 713.931 54.4893 707.605 57.1333L710.689 64.5147ZM857.302 58.52H861.302V54.52H857.302V58.52ZM857.302 143V147H861.302V143H857.302ZM831.062 143H827.062V147H831.062V143ZM831.062 58.52V54.52H827.062V58.52H831.062ZM803.67 58.52H807.67V54.52H803.67V58.52ZM803.67 143V147H807.67V143H803.67ZM777.558 143H773.558V147H777.558V143ZM777.558 58.52V54.52H773.558V58.52H777.558ZM845.398 90.648H849.398V86.648H845.398V90.648ZM845.398 110.232V114.232H849.398V110.232H845.398ZM790.23 110.232H786.23V114.232H790.23V110.232ZM790.23 90.648V86.648H786.23V90.648H790.23ZM853.302 58.52V143H861.302V58.52H853.302ZM857.302 139H831.062V147H857.302V139ZM835.062 143V58.52H827.062V143H835.062ZM831.062 62.52H857.302V54.52H831.062V62.52ZM799.67 58.52V143H807.67V58.52H799.67ZM803.67 139H777.558V147H803.67V139ZM781.558 143V58.52H773.558V143H781.558ZM777.558 62.52H803.67V54.52H777.558V62.52ZM841.398 90.648V110.232H849.398V90.648H841.398ZM845.398 106.232H790.23V114.232H845.398V106.232ZM794.23 110.232V90.648H786.23V110.232H794.23ZM790.23 94.648H845.398V86.648H790.23V94.648ZM872.933 143H868.933V147H872.933V143ZM872.933 58.52V54.52H868.933V58.52H872.933ZM941.029 58.52H945.029V54.52H941.029V58.52ZM941.029 78.104V82.104H945.029V78.104H941.029ZM899.045 78.104V74.104H895.045V78.104H899.045ZM899.045 91.8H895.045V95.8H899.045V91.8ZM932.581 91.8H936.581V87.8H932.581V91.8ZM932.581 109.976V113.976H936.581V109.976H932.581ZM899.045 109.976V105.976H895.045V109.976H899.045ZM899.045 123.416H895.045V127.416H899.045V123.416ZM942.693 123.416H946.693V119.416H942.693V123.416ZM942.693 143V147H946.693V143H942.693ZM876.933 143V58.52H868.933V143H876.933ZM872.933 62.52H941.029V54.52H872.933V62.52ZM937.029 58.52V78.104H945.029V58.52H937.029ZM941.029 74.104H899.045V82.104H941.029V74.104ZM895.045 78.104V91.8H903.045V78.104H895.045ZM899.045 95.8H932.581V87.8H899.045V95.8ZM928.581 91.8V109.976H936.581V91.8H928.581ZM932.581 105.976H899.045V113.976H932.581V105.976ZM895.045 109.976V123.416H903.045V109.976H895.045ZM899.045 127.416H942.693V119.416H899.045V127.416ZM938.693 123.416V143H946.693V123.416H938.693ZM942.693 139H872.933V147H942.693V139ZM1022.3 69.528L1019.39 72.2705L1022.3 69.528ZM1022.3 131.992L1025.21 134.735L1025.22 134.726L1025.23 134.718L1022.3 131.992ZM953.308 143H949.308V147H953.308V143ZM953.308 58.52V54.52H949.308V58.52H953.308ZM1002.08 118.296L1005.42 120.497L1005.43 120.48L1005.44 120.463L1002.08 118.296ZM1002.08 83.352L998.714 85.5188L998.725 85.5361L998.736 85.5532L1002.08 83.352ZM979.42 77.592V73.592H975.42V77.592H979.42ZM979.42 123.928H975.42V127.928H979.42V123.928ZM992.092 62.52C1004.58 62.52 1013.45 65.9638 1019.39 72.2705L1025.21 66.7855C1017.33 58.4149 1006.06 54.52 992.092 54.52V62.52ZM1019.39 72.2705C1025.39 78.6455 1028.67 87.945 1028.67 100.76H1036.67C1036.67 86.6096 1033.03 75.0879 1025.21 66.7855L1019.39 72.2705ZM1028.67 100.76C1028.67 113.479 1025.4 122.795 1019.37 129.266L1025.23 134.718C1033.03 126.341 1036.67 114.836 1036.67 100.76H1028.67ZM1019.39 129.249C1013.45 135.556 1004.58 139 992.092 139V147C1006.06 147 1017.33 143.105 1025.21 134.735L1019.39 129.249ZM992.092 139H953.308V147H992.092V139ZM957.308 143V58.52H949.308V143H957.308ZM953.308 62.52H992.092V54.52H953.308V62.52ZM988.892 127.928C995.959 127.928 1001.93 125.793 1005.42 120.497L998.736 116.095C997.277 118.309 994.454 119.928 988.892 119.928V127.928ZM1005.44 120.463C1008.53 115.662 1009.79 108.891 1009.79 100.76H1001.79C1001.79 108.33 1000.57 113.25 998.714 116.129L1005.44 120.463ZM1009.79 100.76C1009.79 92.6402 1008.54 85.8851 1005.42 81.1507L998.736 85.5532C1000.57 88.3283 1001.79 93.1785 1001.79 100.76H1009.79ZM1005.44 81.1852C1001.96 75.7931 995.994 73.592 988.892 73.592V81.592C994.419 81.592 997.239 83.2309 998.714 85.5188L1005.44 81.1852ZM988.892 73.592H979.42V81.592H988.892V73.592ZM975.42 77.592V123.928H983.42V77.592H975.42ZM979.42 127.928H988.892V119.928H979.42V127.928Z" fill="url(#paint2_linear_201_523)" mask="url(#path-3-outside-2_201_523)"/>
<mask id="path-5-outside-3_201_523" maskUnits="userSpaceOnUse" x="3" y="32" width="1031" height="90" fill="black">
<rect fill="white" x="3" y="32" width="1031" height="90"/>
<path d="M43.136 120.28C35.712 120.28 29.0987 118.659 23.296 115.416C17.4933 112.173 12.928 107.309 9.6 100.824C6.272 94.3387 4.608 86.4027 4.608 77.016C4.608 67.8 6.31467 59.9493 9.728 53.464C13.2267 46.8933 18.2187 41.9013 24.704 38.488C31.1893 34.9893 38.8693 33.24 47.744 33.24C57.728 33.24 65.7493 35.032 71.808 38.616C77.952 42.2 82.688 47.8747 86.016 55.64L61.696 64.728C60.8427 60.5467 59.2213 57.6027 56.832 55.896C54.4427 54.104 51.456 53.208 47.872 53.208C44.2027 53.208 41.1307 54.104 38.656 55.896C36.2667 57.6027 34.4747 60.2053 33.28 63.704C32.0853 67.2027 31.488 71.5547 31.488 76.76C31.488 82.392 32.128 87 33.408 90.584C34.7733 94.168 36.8213 96.8133 39.552 98.52C42.2827 100.141 45.6533 100.952 49.664 100.952C51.712 100.952 53.5893 100.739 55.296 100.312C57.0027 99.8 58.496 99.0747 59.776 98.136C61.1413 97.1973 62.1653 96.0453 62.848 94.68C63.5307 93.2293 63.872 91.5653 63.872 89.688V89.048H47.232V72.28H85.888V119H68.352L66.304 97.624L70.4 101.72C68.864 107.693 65.792 112.301 61.184 115.544C56.576 118.701 50.56 120.28 43.136 120.28ZM100.183 119V34.52H168.279V54.104H126.295V67.8H159.831V85.976H126.295V99.416H169.943V119H100.183ZM255.694 34.52V54.104H228.814V119H202.702V54.104H175.566V34.52H255.694ZM366.776 54.104H324.92V68.824H358.456V88.408H324.92V119H298.808V34.52H366.776V54.104ZM454.364 34.52V83.544C454.364 95.832 451.079 105.048 444.508 111.192C437.937 117.251 428.124 120.28 415.068 120.28C401.927 120.28 392.071 117.251 385.5 111.192C378.929 105.048 375.644 95.832 375.644 83.544V34.52H401.884V84.952C401.884 90.072 402.993 93.912 405.212 96.472C407.431 99.032 410.716 100.312 415.068 100.312C419.42 100.312 422.705 99.032 424.924 96.472C427.143 93.912 428.252 90.072 428.252 84.952V34.52H454.364ZM511.572 34.52C522.068 34.52 530.175 36.952 535.892 41.816C541.695 46.5947 544.596 52.9947 544.596 61.016C544.596 69.976 541.78 76.76 536.148 81.368C530.516 85.976 522.409 88.28 511.828 88.28L509.268 89.688H493.908V119H468.308V34.52H511.572ZM507.348 71.896C511.017 71.896 513.748 71.2133 515.54 69.848C517.417 68.3973 518.356 66.0507 518.356 62.808C518.356 59.5653 517.417 57.2187 515.54 55.768C513.748 54.3173 511.017 53.592 507.348 53.592H493.908V71.896H507.348ZM522.836 77.4L549.46 119H520.916L500.308 82.008L522.836 77.4ZM637.299 34.52V119H608.627L585.587 77.144L580.211 65.752H579.955L580.467 82.392V119H557.683V34.52H586.227L609.267 76.376L614.771 87.768H614.899L614.387 71.128V34.52H637.299ZM679.045 34.52V119H652.933V34.52H679.045ZM729.755 33.24C737.776 33.24 744.902 34.3493 751.131 36.568C757.36 38.7013 762.822 41.9867 767.515 46.424L756.123 63.192C752.283 59.9493 748.187 57.432 743.835 55.64C739.568 53.7627 734.832 52.824 729.627 52.824C726.982 52.824 724.848 53.08 723.227 53.592C721.606 54.104 720.411 54.8293 719.643 55.768C718.96 56.6213 718.619 57.6027 718.619 58.712C718.619 60.0773 719.43 61.1867 721.051 62.04C722.758 62.8933 725.104 63.6613 728.091 64.344L740.891 67.288C749.424 69.2507 755.782 72.152 759.963 75.992C764.144 79.7467 766.235 84.9093 766.235 91.48C766.235 97.88 764.614 103.213 761.371 107.48C758.214 111.747 753.862 114.947 748.315 117.08C742.768 119.213 736.496 120.28 729.499 120.28C723.952 120.28 718.534 119.725 713.243 118.616C708.038 117.507 703.259 115.928 698.907 113.88C694.555 111.747 690.8 109.229 687.643 106.328L698.907 89.048C701.211 91.2667 704.027 93.272 707.355 95.064C710.683 96.7707 714.224 98.136 717.979 99.16C721.734 100.184 725.36 100.696 728.859 100.696C731.334 100.696 733.339 100.483 734.875 100.056C736.496 99.544 737.648 98.8613 738.331 98.008C739.014 97.1547 739.355 96.1307 739.355 94.936C739.355 93.4853 738.8 92.3333 737.691 91.48C736.582 90.5413 734.491 89.7307 731.419 89.048L717.339 85.848C712.731 84.824 708.464 83.416 704.539 81.624C700.614 79.832 697.456 77.3573 695.067 74.2C692.763 70.9573 691.611 66.7333 691.611 61.528C691.611 55.9813 693.104 51.0747 696.091 46.808C699.078 42.5413 703.43 39.2133 709.147 36.824C714.864 34.4347 721.734 33.24 729.755 33.24ZM857.302 34.52V119H831.062V34.52H857.302ZM803.67 34.52V119H777.558V34.52H803.67ZM845.398 66.648V86.232H790.23V66.648H845.398ZM872.933 119V34.52H941.029V54.104H899.045V67.8H932.581V85.976H899.045V99.416H942.693V119H872.933ZM992.092 34.52C1005.32 34.52 1015.39 38.1893 1022.3 45.528C1029.21 52.8667 1032.67 63.2773 1032.67 76.76C1032.67 90.1573 1029.21 100.568 1022.3 107.992C1015.39 115.331 1005.32 119 992.092 119H953.308V34.52H992.092ZM988.892 99.928C995.207 99.928 999.601 98.0507 1002.08 94.296C1004.55 90.456 1005.79 84.6107 1005.79 76.76C1005.79 68.9093 1004.55 63.1067 1002.08 59.352C999.601 55.512 995.207 53.592 988.892 53.592H979.42V99.928H988.892Z"/>
</mask>
<path d="M43.136 120.28C35.712 120.28 29.0987 118.659 23.296 115.416C17.4933 112.173 12.928 107.309 9.6 100.824C6.272 94.3387 4.608 86.4027 4.608 77.016C4.608 67.8 6.31467 59.9493 9.728 53.464C13.2267 46.8933 18.2187 41.9013 24.704 38.488C31.1893 34.9893 38.8693 33.24 47.744 33.24C57.728 33.24 65.7493 35.032 71.808 38.616C77.952 42.2 82.688 47.8747 86.016 55.64L61.696 64.728C60.8427 60.5467 59.2213 57.6027 56.832 55.896C54.4427 54.104 51.456 53.208 47.872 53.208C44.2027 53.208 41.1307 54.104 38.656 55.896C36.2667 57.6027 34.4747 60.2053 33.28 63.704C32.0853 67.2027 31.488 71.5547 31.488 76.76C31.488 82.392 32.128 87 33.408 90.584C34.7733 94.168 36.8213 96.8133 39.552 98.52C42.2827 100.141 45.6533 100.952 49.664 100.952C51.712 100.952 53.5893 100.739 55.296 100.312C57.0027 99.8 58.496 99.0747 59.776 98.136C61.1413 97.1973 62.1653 96.0453 62.848 94.68C63.5307 93.2293 63.872 91.5653 63.872 89.688V89.048H47.232V72.28H85.888V119H68.352L66.304 97.624L70.4 101.72C68.864 107.693 65.792 112.301 61.184 115.544C56.576 118.701 50.56 120.28 43.136 120.28ZM100.183 119V34.52H168.279V54.104H126.295V67.8H159.831V85.976H126.295V99.416H169.943V119H100.183ZM255.694 34.52V54.104H228.814V119H202.702V54.104H175.566V34.52H255.694ZM366.776 54.104H324.92V68.824H358.456V88.408H324.92V119H298.808V34.52H366.776V54.104ZM454.364 34.52V83.544C454.364 95.832 451.079 105.048 444.508 111.192C437.937 117.251 428.124 120.28 415.068 120.28C401.927 120.28 392.071 117.251 385.5 111.192C378.929 105.048 375.644 95.832 375.644 83.544V34.52H401.884V84.952C401.884 90.072 402.993 93.912 405.212 96.472C407.431 99.032 410.716 100.312 415.068 100.312C419.42 100.312 422.705 99.032 424.924 96.472C427.143 93.912 428.252 90.072 428.252 84.952V34.52H454.364ZM511.572 34.52C522.068 34.52 530.175 36.952 535.892 41.816C541.695 46.5947 544.596 52.9947 544.596 61.016C544.596 69.976 541.78 76.76 536.148 81.368C530.516 85.976 522.409 88.28 511.828 88.28L509.268 89.688H493.908V119H468.308V34.52H511.572ZM507.348 71.896C511.017 71.896 513.748 71.2133 515.54 69.848C517.417 68.3973 518.356 66.0507 518.356 62.808C518.356 59.5653 517.417 57.2187 515.54 55.768C513.748 54.3173 511.017 53.592 507.348 53.592H493.908V71.896H507.348ZM522.836 77.4L549.46 119H520.916L500.308 82.008L522.836 77.4ZM637.299 34.52V119H608.627L585.587 77.144L580.211 65.752H579.955L580.467 82.392V119H557.683V34.52H586.227L609.267 76.376L614.771 87.768H614.899L614.387 71.128V34.52H637.299ZM679.045 34.52V119H652.933V34.52H679.045ZM729.755 33.24C737.776 33.24 744.902 34.3493 751.131 36.568C757.36 38.7013 762.822 41.9867 767.515 46.424L756.123 63.192C752.283 59.9493 748.187 57.432 743.835 55.64C739.568 53.7627 734.832 52.824 729.627 52.824C726.982 52.824 724.848 53.08 723.227 53.592C721.606 54.104 720.411 54.8293 719.643 55.768C718.96 56.6213 718.619 57.6027 718.619 58.712C718.619 60.0773 719.43 61.1867 721.051 62.04C722.758 62.8933 725.104 63.6613 728.091 64.344L740.891 67.288C749.424 69.2507 755.782 72.152 759.963 75.992C764.144 79.7467 766.235 84.9093 766.235 91.48C766.235 97.88 764.614 103.213 761.371 107.48C758.214 111.747 753.862 114.947 748.315 117.08C742.768 119.213 736.496 120.28 729.499 120.28C723.952 120.28 718.534 119.725 713.243 118.616C708.038 117.507 703.259 115.928 698.907 113.88C694.555 111.747 690.8 109.229 687.643 106.328L698.907 89.048C701.211 91.2667 704.027 93.272 707.355 95.064C710.683 96.7707 714.224 98.136 717.979 99.16C721.734 100.184 725.36 100.696 728.859 100.696C731.334 100.696 733.339 100.483 734.875 100.056C736.496 99.544 737.648 98.8613 738.331 98.008C739.014 97.1547 739.355 96.1307 739.355 94.936C739.355 93.4853 738.8 92.3333 737.691 91.48C736.582 90.5413 734.491 89.7307 731.419 89.048L717.339 85.848C712.731 84.824 708.464 83.416 704.539 81.624C700.614 79.832 697.456 77.3573 695.067 74.2C692.763 70.9573 691.611 66.7333 691.611 61.528C691.611 55.9813 693.104 51.0747 696.091 46.808C699.078 42.5413 703.43 39.2133 709.147 36.824C714.864 34.4347 721.734 33.24 729.755 33.24ZM857.302 34.52V119H831.062V34.52H857.302ZM803.67 34.52V119H777.558V34.52H803.67ZM845.398 66.648V86.232H790.23V66.648H845.398ZM872.933 119V34.52H941.029V54.104H899.045V67.8H932.581V85.976H899.045V99.416H942.693V119H872.933ZM992.092 34.52C1005.32 34.52 1015.39 38.1893 1022.3 45.528C1029.21 52.8667 1032.67 63.2773 1032.67 76.76C1032.67 90.1573 1029.21 100.568 1022.3 107.992C1015.39 115.331 1005.32 119 992.092 119H953.308V34.52H992.092ZM988.892 99.928C995.207 99.928 999.601 98.0507 1002.08 94.296C1004.55 90.456 1005.79 84.6107 1005.79 76.76C1005.79 68.9093 1004.55 63.1067 1002.08 59.352C999.601 55.512 995.207 53.592 988.892 53.592H979.42V99.928H988.892Z" fill="white"/>
<path d="M23.296 115.416L23.7838 114.543L23.296 115.416ZM9.6 100.824L8.71031 101.281L9.6 100.824ZM9.728 53.464L8.84532 52.994L8.84308 52.9982L9.728 53.464ZM24.704 38.488L25.1698 39.373L25.1788 39.3681L24.704 38.488ZM71.808 38.616L71.2989 39.4767L71.3041 39.4798L71.808 38.616ZM86.016 55.64L86.3661 56.5767L87.3481 56.2097L86.9352 55.2461L86.016 55.64ZM61.696 64.728L60.7162 64.928L60.9501 66.0743L62.046 65.6647L61.696 64.728ZM56.832 55.896L56.232 56.696L56.2413 56.703L56.2508 56.7097L56.832 55.896ZM38.656 55.896L39.2373 56.7097L39.2425 56.7059L38.656 55.896ZM33.28 63.704L34.2264 64.0271L33.28 63.704ZM33.408 90.584L32.4663 90.9203L32.4698 90.9302L32.4735 90.94L33.408 90.584ZM39.552 98.52L39.022 99.368L39.0317 99.374L39.0415 99.3799L39.552 98.52ZM55.296 100.312L55.5385 101.282L55.5611 101.277L55.5833 101.27L55.296 100.312ZM59.776 98.136L59.2095 97.312L59.1969 97.3206L59.1846 97.3296L59.776 98.136ZM62.848 94.68L63.7424 95.1272L63.7478 95.1166L63.7528 95.1058L62.848 94.68ZM63.872 89.048H64.872V88.048H63.872V89.048ZM47.232 89.048H46.232V90.048H47.232V89.048ZM47.232 72.28V71.28H46.232V72.28H47.232ZM85.888 72.28H86.888V71.28H85.888V72.28ZM85.888 119V120H86.888V119H85.888ZM68.352 119L67.3566 119.095L67.4432 120H68.352V119ZM66.304 97.624L67.0111 96.9169L65.0431 94.9489L65.3086 97.7194L66.304 97.624ZM70.4 101.72L71.3685 101.969L71.5106 101.416L71.1071 101.013L70.4 101.72ZM61.184 115.544L61.7493 116.369L61.7595 116.362L61.184 115.544ZM43.136 119.28C35.8624 119.28 29.4206 117.693 23.7838 114.543L22.8082 116.289C28.7767 119.624 35.5616 121.28 43.136 121.28V119.28ZM23.7838 114.543C18.1698 111.406 13.7368 106.695 10.4897 100.367L8.71031 101.281C12.1192 107.924 16.8169 112.941 22.8082 116.289L23.7838 114.543ZM10.4897 100.367C7.25201 94.0581 5.608 86.2882 5.608 77.016H3.608C3.608 86.5172 5.29199 94.6192 8.71031 101.281L10.4897 100.367ZM5.608 77.016C5.608 67.9214 7.29216 60.2392 10.6129 53.9297L8.84308 52.9982C5.33717 59.6595 3.608 67.6786 3.608 77.016H5.608ZM10.6107 53.934C14.0167 47.5373 18.8648 42.6913 25.1697 39.3729L24.2383 37.6031C17.5725 41.1114 12.4367 46.2493 8.84533 52.994L10.6107 53.934ZM25.1788 39.3681C31.4912 35.9627 39.0014 34.24 47.744 34.24V32.24C38.7373 32.24 30.8874 34.016 24.2292 37.6079L25.1788 39.3681ZM47.744 34.24C57.6199 34.24 65.4458 36.0143 71.2989 39.4767L72.3171 37.7553C66.0529 34.0497 57.8361 32.24 47.744 32.24V34.24ZM71.3041 39.4798C77.23 42.9366 81.837 48.4276 85.0969 56.0339L86.9352 55.2461C83.539 47.3218 78.674 41.4634 72.3119 37.7522L71.3041 39.4798ZM85.666 54.7033L61.346 63.7913L62.046 65.6647L86.3661 56.5767L85.666 54.7033ZM62.6758 64.528C61.7946 60.2102 60.0849 56.9906 57.4132 55.0823L56.2508 56.7097C58.3578 58.2147 59.8907 60.8831 60.7162 64.928L62.6758 64.528ZM57.432 55.096C54.8371 53.1498 51.6279 52.208 47.872 52.208V54.208C51.2841 54.208 54.0483 55.0582 56.232 56.696L57.432 55.096ZM47.872 52.208C44.0354 52.208 40.7468 53.1473 38.0695 55.0861L39.2425 56.7059C41.5145 55.0607 44.37 54.208 47.872 54.208V52.208ZM38.0748 55.0823C35.4759 56.9386 33.5782 59.7361 32.3337 63.3809L34.2264 64.0271C35.3711 60.6745 37.0574 58.2668 39.2372 56.7097L38.0748 55.0823ZM32.3337 63.3809C31.0922 67.0165 30.488 71.486 30.488 76.76H32.488C32.488 71.6234 33.0784 67.3889 34.2264 64.0271L32.3337 63.3809ZM30.488 76.76C30.488 82.4569 31.1339 87.1898 32.4663 90.9203L34.3497 90.2477C33.1221 86.8102 32.488 82.3271 32.488 76.76H30.488ZM32.4735 90.94C33.9011 94.6875 36.0731 97.5249 39.022 99.368L40.082 97.672C37.5696 96.1017 35.6455 93.6485 34.3425 90.228L32.4735 90.94ZM39.0415 99.3799C41.9623 101.114 45.5203 101.952 49.664 101.952V99.952C45.7864 99.952 42.603 99.1685 40.0625 97.6601L39.0415 99.3799ZM49.664 101.952C51.7807 101.952 53.7408 101.732 55.5385 101.282L55.0535 99.3419C53.4378 99.7458 51.6433 99.952 49.664 99.952V101.952ZM55.5833 101.27C57.386 100.729 58.9849 99.9562 60.3674 98.9424L59.1846 97.3296C58.0071 98.1931 56.6194 98.871 55.0087 99.3542L55.5833 101.27ZM60.3425 98.96C61.835 97.9339 62.9777 96.6566 63.7424 95.1272L61.9536 94.2328C61.3529 95.4341 60.4476 96.4607 59.2095 97.312L60.3425 98.96ZM63.7528 95.1058C64.508 93.501 64.872 91.6875 64.872 89.688H62.872C62.872 91.4431 62.5533 92.9576 61.9432 94.2542L63.7528 95.1058ZM64.872 89.688V89.048H62.872V89.688H64.872ZM63.872 88.048H47.232V90.048H63.872V88.048ZM48.232 89.048V72.28H46.232V89.048H48.232ZM47.232 73.28H85.888V71.28H47.232V73.28ZM84.888 72.28V119H86.888V72.28H84.888ZM85.888 118H68.352V120H85.888V118ZM69.3475 118.905L67.2994 97.5286L65.3086 97.7194L67.3566 119.095L69.3475 118.905ZM65.5969 98.3311L69.6929 102.427L71.1071 101.013L67.0111 96.9169L65.5969 98.3311ZM69.4315 101.471C67.9487 107.237 65.0032 111.634 60.6085 114.726L61.7595 116.362C66.5808 112.969 69.7793 108.149 71.3685 101.969L69.4315 101.471ZM60.6188 114.719C56.224 117.73 50.4236 119.28 43.136 119.28V121.28C50.6964 121.28 56.928 119.672 61.7492 116.369L60.6188 114.719ZM100.183 119H99.183V120H100.183V119ZM100.183 34.52V33.52H99.183V34.52H100.183ZM168.279 34.52H169.279V33.52H168.279V34.52ZM168.279 54.104V55.104H169.279V54.104H168.279ZM126.295 54.104V53.104H125.295V54.104H126.295ZM126.295 67.8H125.295V68.8H126.295V67.8ZM159.831 67.8H160.831V66.8H159.831V67.8ZM159.831 85.976V86.976H160.831V85.976H159.831ZM126.295 85.976V84.976H125.295V85.976H126.295ZM126.295 99.416H125.295V100.416H126.295V99.416ZM169.943 99.416H170.943V98.416H169.943V99.416ZM169.943 119V120H170.943V119H169.943ZM101.183 119V34.52H99.183V119H101.183ZM100.183 35.52H168.279V33.52H100.183V35.52ZM167.279 34.52V54.104H169.279V34.52H167.279ZM168.279 53.104H126.295V55.104H168.279V53.104ZM125.295 54.104V67.8H127.295V54.104H125.295ZM126.295 68.8H159.831V66.8H126.295V68.8ZM158.831 67.8V85.976H160.831V67.8H158.831ZM159.831 84.976H126.295V86.976H159.831V84.976ZM125.295 85.976V99.416H127.295V85.976H125.295ZM126.295 100.416H169.943V98.416H126.295V100.416ZM168.943 99.416V119H170.943V99.416H168.943ZM169.943 118H100.183V120H169.943V118ZM255.694 34.52H256.694V33.52H255.694V34.52ZM255.694 54.104V55.104H256.694V54.104H255.694ZM228.814 54.104V53.104H227.814V54.104H228.814ZM228.814 119V120H229.814V119H228.814ZM202.702 119H201.702V120H202.702V119ZM202.702 54.104H203.702V53.104H202.702V54.104ZM175.566 54.104H174.566V55.104H175.566V54.104ZM175.566 34.52V33.52H174.566V34.52H175.566ZM254.694 34.52V54.104H256.694V34.52H254.694ZM255.694 53.104H228.814V55.104H255.694V53.104ZM227.814 54.104V119H229.814V54.104H227.814ZM228.814 118H202.702V120H228.814V118ZM203.702 119V54.104H201.702V119H203.702ZM202.702 53.104H175.566V55.104H202.702V53.104ZM176.566 54.104V34.52H174.566V54.104H176.566ZM175.566 35.52H255.694V33.52H175.566V35.52ZM366.776 54.104V55.104H367.776V54.104H366.776ZM324.92 54.104V53.104H323.92V54.104H324.92ZM324.92 68.824H323.92V69.824H324.92V68.824ZM358.456 68.824H359.456V67.824H358.456V68.824ZM358.456 88.408V89.408H359.456V88.408H358.456ZM324.92 88.408V87.408H323.92V88.408H324.92ZM324.92 119V120H325.92V119H324.92ZM298.808 119H297.808V120H298.808V119ZM298.808 34.52V33.52H297.808V34.52H298.808ZM366.776 34.52H367.776V33.52H366.776V34.52ZM366.776 53.104H324.92V55.104H366.776V53.104ZM323.92 54.104V68.824H325.92V54.104H323.92ZM324.92 69.824H358.456V67.824H324.92V69.824ZM357.456 68.824V88.408H359.456V68.824H357.456ZM358.456 87.408H324.92V89.408H358.456V87.408ZM323.92 88.408V119H325.92V88.408H323.92ZM324.92 118H298.808V120H324.92V118ZM299.808 119V34.52H297.808V119H299.808ZM298.808 35.52H366.776V33.52H298.808V35.52ZM365.776 34.52V54.104H367.776V34.52H365.776ZM454.364 34.52H455.364V33.52H454.364V34.52ZM444.508 111.192L445.186 111.927L445.191 111.922L444.508 111.192ZM385.5 111.192L384.817 111.922L384.822 111.927L385.5 111.192ZM375.644 34.52V33.52H374.644V34.52H375.644ZM401.884 34.52H402.884V33.52H401.884V34.52ZM424.924 96.472L425.68 97.1269L424.924 96.472ZM428.252 34.52V33.52H427.252V34.52H428.252ZM453.364 34.52V83.544H455.364V34.52H453.364ZM453.364 83.544C453.364 95.66 450.128 104.568 443.825 110.462L445.191 111.922C452.03 105.528 455.364 96.004 455.364 83.544H453.364ZM443.83 110.457C437.514 116.281 427.987 119.28 415.068 119.28V121.28C428.261 121.28 438.361 118.22 445.186 111.927L443.83 110.457ZM415.068 119.28C402.062 119.28 392.493 116.28 386.178 110.457L384.822 111.927C391.648 118.221 401.792 121.28 415.068 121.28V119.28ZM386.183 110.462C379.88 104.568 376.644 95.66 376.644 83.544H374.644C374.644 96.004 377.978 105.528 384.817 111.922L386.183 110.462ZM376.644 83.544V34.52H374.644V83.544H376.644ZM375.644 35.52H401.884V33.52H375.644V35.52ZM400.884 34.52V84.952H402.884V34.52H400.884ZM400.884 84.952C400.884 90.1938 402.017 94.3119 404.456 97.1269L405.968 95.8171C403.97 93.5121 402.884 89.9501 402.884 84.952H400.884ZM404.456 97.1269C406.916 99.9651 410.514 101.312 415.068 101.312V99.312C410.918 99.312 407.945 98.0989 405.968 95.8171L404.456 97.1269ZM415.068 101.312C419.622 101.312 423.22 99.9651 425.68 97.1269L424.168 95.8171C422.191 98.0989 419.218 99.312 415.068 99.312V101.312ZM425.68 97.1269C428.119 94.3119 429.252 90.1938 429.252 84.952H427.252C427.252 89.9501 426.166 93.5121 424.168 95.8171L425.68 97.1269ZM429.252 84.952V34.52H427.252V84.952H429.252ZM428.252 35.52H454.364V33.52H428.252V35.52ZM535.892 41.816L535.244 42.5777L535.25 42.5828L535.256 42.5879L535.892 41.816ZM536.148 81.368L536.781 82.142L536.148 81.368ZM511.828 88.28V87.28H511.571L511.346 87.4038L511.828 88.28ZM509.268 89.688V90.688H509.525L509.75 90.5642L509.268 89.688ZM493.908 89.688V88.688H492.908V89.688H493.908ZM493.908 119V120H494.908V119H493.908ZM468.308 119H467.308V120H468.308V119ZM468.308 34.52V33.52H467.308V34.52H468.308ZM515.54 69.848L516.146 70.6434L516.151 70.6393L515.54 69.848ZM515.54 55.768L514.911 56.5452L514.92 56.5524L514.929 56.5593L515.54 55.768ZM493.908 53.592V52.592H492.908V53.592H493.908ZM493.908 71.896H492.908V72.896H493.908V71.896ZM522.836 77.4L523.678 76.8609L523.308 76.2827L522.636 76.4203L522.836 77.4ZM549.46 119V120H551.287L550.302 118.461L549.46 119ZM520.916 119L520.042 119.487L520.328 120H520.916V119ZM500.308 82.008L500.108 81.0283L498.77 81.3019L499.434 82.4947L500.308 82.008ZM511.572 35.52C521.924 35.52 529.768 37.919 535.244 42.5777L536.54 41.0543C530.581 35.985 522.212 33.52 511.572 33.52V35.52ZM535.256 42.5879C540.811 47.1625 543.596 53.2705 543.596 61.016H545.596C545.596 52.7188 542.578 46.0268 536.528 41.0441L535.256 42.5879ZM543.596 61.016C543.596 69.7522 540.862 76.2194 535.515 80.594L536.781 82.142C542.698 77.3006 545.596 70.1998 545.596 61.016H543.596ZM535.515 80.594C530.127 85.0022 522.28 87.28 511.828 87.28V89.28C522.538 89.28 530.905 86.9498 536.781 82.142L535.515 80.594ZM511.346 87.4038L508.786 88.8118L509.75 90.5642L512.31 89.1562L511.346 87.4038ZM509.268 88.688H493.908V90.688H509.268V88.688ZM492.908 89.688V119H494.908V89.688H492.908ZM493.908 118H468.308V120H493.908V118ZM469.308 119V34.52H467.308V119H469.308ZM468.308 35.52H511.572V33.52H468.308V35.52ZM507.348 72.896C511.11 72.896 514.101 72.2019 516.146 70.6434L514.934 69.0526C513.395 70.2248 510.925 70.896 507.348 70.896V72.896ZM516.151 70.6393C518.356 68.9357 519.356 66.2389 519.356 62.808H517.356C517.356 65.8624 516.479 67.859 514.929 69.0567L516.151 70.6393ZM519.356 62.808C519.356 59.3771 518.356 56.6803 516.151 54.9767L514.929 56.5593C516.479 57.757 517.356 59.7536 517.356 62.808H519.356ZM516.169 54.9908C514.121 53.3325 511.119 52.592 507.348 52.592V54.592C510.915 54.592 513.375 55.3022 514.911 56.5452L516.169 54.9908ZM507.348 52.592H493.908V54.592H507.348V52.592ZM492.908 53.592V71.896H494.908V53.592H492.908ZM493.908 72.896H507.348V70.896H493.908V72.896ZM521.994 77.939L548.618 119.539L550.302 118.461L523.678 76.8609L521.994 77.939ZM549.46 118H520.916V120H549.46V118ZM521.79 118.513L501.182 81.5213L499.434 82.4947L520.042 119.487L521.79 118.513ZM500.508 82.9877L523.036 78.3797L522.636 76.4203L500.108 81.0283L500.508 82.9877ZM637.299 34.52H638.299V33.52H637.299V34.52ZM637.299 119V120H638.299V119H637.299ZM608.627 119L607.751 119.482L608.036 120H608.627V119ZM585.587 77.144L584.683 77.5708L584.696 77.5989L584.711 77.6262L585.587 77.144ZM580.211 65.752L581.115 65.3252L580.845 64.752H580.211V65.752ZM579.955 65.752V64.752H578.924L578.956 65.7828L579.955 65.752ZM580.467 82.392H581.467V82.3766L581.467 82.3612L580.467 82.392ZM580.467 119V120H581.467V119H580.467ZM557.683 119H556.683V120H557.683V119ZM557.683 34.52V33.52H556.683V34.52H557.683ZM586.227 34.52L587.103 34.0378L586.818 33.52H586.227V34.52ZM609.267 76.376L610.167 75.941L610.156 75.917L610.143 75.8938L609.267 76.376ZM614.771 87.768L613.871 88.203L614.144 88.768H614.771V87.768ZM614.899 87.768V88.768H615.93L615.898 87.7372L614.899 87.768ZM614.387 71.128H613.387V71.1434L613.387 71.1588L614.387 71.128ZM614.387 34.52V33.52H613.387V34.52H614.387ZM636.299 34.52V119H638.299V34.52H636.299ZM637.299 118H608.627V120H637.299V118ZM609.503 118.518L586.463 76.6618L584.711 77.6262L607.751 119.482L609.503 118.518ZM586.491 76.7172L581.115 65.3252L579.307 66.1788L584.683 77.5708L586.491 76.7172ZM580.211 64.752H579.955V66.752H580.211V64.752ZM578.956 65.7828L579.467 82.4228L581.467 82.3612L580.955 65.7212L578.956 65.7828ZM579.467 82.392V119H581.467V82.392H579.467ZM580.467 118H557.683V120H580.467V118ZM558.683 119V34.52H556.683V119H558.683ZM557.683 35.52H586.227V33.52H557.683V35.52ZM585.351 35.0022L608.391 76.8582L610.143 75.8938L587.103 34.0378L585.351 35.0022ZM608.367 76.811L613.871 88.203L615.671 87.333L610.167 75.941L608.367 76.811ZM614.771 88.768H614.899V86.768H614.771V88.768ZM615.898 87.7372L615.387 71.0972L613.387 71.1588L613.899 87.7988L615.898 87.7372ZM615.387 71.128V34.52H613.387V71.128H615.387ZM614.387 35.52H637.299V33.52H614.387V35.52ZM679.045 34.52H680.045V33.52H679.045V34.52ZM679.045 119V120H680.045V119H679.045ZM652.933 119H651.933V120H652.933V119ZM652.933 34.52V33.52H651.933V34.52H652.933ZM678.045 34.52V119H680.045V34.52H678.045ZM679.045 118H652.933V120H679.045V118ZM653.933 119V34.52H651.933V119H653.933ZM652.933 35.52H679.045V33.52H652.933V35.52ZM751.131 36.568L750.795 37.5101L750.807 37.5141L751.131 36.568ZM767.515 46.424L768.342 46.986L768.82 46.282L768.202 45.6973L767.515 46.424ZM756.123 63.192L755.478 63.956L756.326 64.6724L756.95 63.754L756.123 63.192ZM743.835 55.64L743.432 56.5553L743.443 56.5601L743.454 56.5647L743.835 55.64ZM723.227 53.592L722.926 52.6384L723.227 53.592ZM719.643 55.768L718.869 55.1347L718.862 55.1433L719.643 55.768ZM721.051 62.04L720.585 62.9249L720.594 62.9298L720.604 62.9344L721.051 62.04ZM728.091 64.344L728.315 63.3694L728.314 63.3691L728.091 64.344ZM759.963 75.992L759.287 76.7286L759.295 76.736L759.963 75.992ZM761.371 107.48L760.575 106.875L760.567 106.885L761.371 107.48ZM748.315 117.08L748.674 118.013L748.315 117.08ZM713.243 118.616L713.035 119.594L713.038 119.595L713.243 118.616ZM698.907 113.88L698.467 114.778L698.474 114.781L698.481 114.785L698.907 113.88ZM687.643 106.328L686.805 105.782L686.343 106.491L686.966 107.064L687.643 106.328ZM698.907 89.048L699.601 88.3277L698.73 87.4889L698.069 88.5019L698.907 89.048ZM707.355 95.064L706.881 95.9445L706.89 95.9492L706.899 95.9538L707.355 95.064ZM717.979 99.16L717.716 100.125L717.979 99.16ZM734.875 100.056L735.143 101.02L735.159 101.015L735.176 101.01L734.875 100.056ZM738.331 98.008L737.55 97.3833V97.3833L738.331 98.008ZM737.691 91.48L737.045 92.2434L737.063 92.2584L737.081 92.2726L737.691 91.48ZM731.419 89.048L731.197 90.0231L731.202 90.0242L731.419 89.048ZM717.339 85.848L717.561 84.8729L717.556 84.8718L717.339 85.848ZM704.539 81.624L704.124 82.5337L704.539 81.624ZM695.067 74.2L694.252 74.7792L694.26 74.7915L694.27 74.8034L695.067 74.2ZM729.755 34.24C737.686 34.24 744.694 35.3369 750.795 37.51L751.467 35.626C745.109 33.3618 737.867 32.24 729.755 32.24V34.24ZM750.807 37.5141C756.904 39.602 762.241 42.8135 766.828 47.1506L768.202 45.6973C763.403 41.1598 757.817 37.8007 751.455 35.6219L750.807 37.5141ZM766.688 45.862L755.296 62.63L756.95 63.754L768.342 46.986L766.688 45.862ZM756.768 62.428C752.854 59.1229 748.67 56.5494 744.216 54.7153L743.454 56.5647C747.704 58.3146 751.712 60.7758 755.478 63.956L756.768 62.428ZM744.238 54.7247C739.83 52.7853 734.955 51.824 729.627 51.824V53.824C734.71 53.824 739.307 54.74 743.432 56.5553L744.238 54.7247ZM729.627 51.824C726.93 51.824 724.683 52.0835 722.926 52.6384L723.528 54.5456C725.014 54.0765 727.034 53.824 729.627 53.824V51.824ZM722.926 52.6384C721.191 53.1864 719.8 53.9965 718.869 55.1348L720.417 56.4012C721.022 55.6622 722.021 55.0216 723.528 54.5456L722.926 52.6384ZM718.862 55.1433C718.035 56.1768 717.619 57.3793 717.619 58.712H719.619C719.619 57.826 719.885 57.0658 720.424 56.3927L718.862 55.1433ZM717.619 58.712C717.619 60.5754 718.765 61.967 720.585 62.9249L721.517 61.1551C720.094 60.4063 719.619 59.5793 719.619 58.712H717.619ZM720.604 62.9344C722.411 63.8382 724.845 64.6277 727.868 65.3189L728.314 63.3691C725.364 62.6949 723.104 61.9484 721.498 61.1456L720.604 62.9344ZM727.867 65.3186L740.667 68.2626L741.115 66.3134L728.315 63.3694L727.867 65.3186ZM740.667 68.2626C749.115 70.2057 755.284 73.0526 759.287 76.7285L760.639 75.2555C756.279 71.2514 749.734 68.2957 741.115 66.3134L740.667 68.2626ZM759.295 76.736C763.229 80.2684 765.235 85.1405 765.235 91.48H767.235C767.235 84.6782 765.06 79.2249 760.631 75.2479L759.295 76.736ZM765.235 91.48C765.235 97.7052 763.661 102.814 760.575 106.875L762.167 108.085C765.566 103.613 767.235 98.0548 767.235 91.48H765.235ZM760.567 106.885C757.536 110.981 753.347 114.073 747.956 116.147L748.674 118.013C754.376 115.82 758.891 112.512 762.175 108.075L760.567 106.885ZM747.956 116.147C742.542 118.229 736.395 119.28 729.499 119.28V121.28C736.598 121.28 742.994 120.198 748.674 118.013L747.956 116.147ZM729.499 119.28C724.019 119.28 718.67 118.732 713.448 117.637L713.038 119.595C718.398 120.719 723.885 121.28 729.499 121.28V119.28ZM713.451 117.638C708.313 116.543 703.608 114.987 699.333 112.975L698.481 114.785C702.91 116.869 707.762 118.47 713.035 119.594L713.451 117.638ZM699.347 112.982C695.07 110.886 691.398 108.42 688.32 105.592L686.966 107.064C690.203 110.038 694.04 112.608 698.467 114.778L699.347 112.982ZM688.481 106.874L699.745 89.5941L698.069 88.5019L686.805 105.782L688.481 106.874ZM698.213 89.7683C700.594 92.0603 703.487 94.1169 706.881 95.9445L707.829 94.1835C704.567 92.4271 701.828 90.473 699.601 88.3277L698.213 89.7683ZM706.899 95.9538C710.291 97.6933 713.897 99.0833 717.716 100.125L718.242 98.1952C714.552 97.1887 711.075 95.848 707.811 94.1742L706.899 95.9538ZM717.716 100.125C721.547 101.17 725.262 101.696 728.859 101.696V99.696C725.459 99.696 721.921 99.1984 718.242 98.1952L717.716 100.125ZM728.859 101.696C731.38 101.696 733.485 101.48 735.143 101.02L734.607 99.0925C733.193 99.4855 731.287 99.696 728.859 99.696V101.696ZM735.176 101.01C736.889 100.469 738.254 99.7048 739.112 98.6327L737.55 97.3833C737.042 98.0179 736.103 98.6194 734.574 99.1024L735.176 101.01ZM739.112 98.6327C739.95 97.5852 740.355 96.3352 740.355 94.936H738.355C738.355 95.9262 738.077 96.7241 737.55 97.3833L739.112 98.6327ZM740.355 94.936C740.355 93.1881 739.666 91.7379 738.301 90.6874L737.081 92.2726C737.934 92.9287 738.355 93.7826 738.355 94.936H740.355ZM738.337 90.7166C737.027 89.6078 734.723 88.7577 731.636 88.0718L731.202 90.0242C734.259 90.7036 736.137 91.4748 737.045 92.2434L738.337 90.7166ZM731.641 88.0729L717.561 84.8729L717.117 86.8231L731.197 90.0231L731.641 88.0729ZM717.556 84.8718C713.01 83.8616 708.81 82.4747 704.954 80.7143L704.124 82.5337C708.118 84.3573 712.452 85.7864 717.122 86.8242L717.556 84.8718ZM704.954 80.7143C701.166 78.9848 698.145 76.6101 695.864 73.5966L694.27 74.8034C696.768 78.1046 700.061 80.6792 704.124 82.5337L704.954 80.7143ZM695.882 73.6208C693.731 70.5927 692.611 66.5894 692.611 61.528H690.611C690.611 66.8773 691.795 71.322 694.252 74.7792L695.882 73.6208ZM692.611 61.528C692.611 56.1724 694.049 51.4689 696.91 47.3815L695.272 46.2345C692.16 50.6805 690.611 55.7902 690.611 61.528H692.611ZM696.91 47.3815C699.769 43.2972 703.956 40.077 709.533 37.7467L708.761 35.9013C702.903 38.3496 698.386 41.7854 695.272 46.2345L696.91 47.3815ZM709.533 37.7467C715.098 35.421 721.829 34.24 729.755 34.24V32.24C721.639 32.24 714.631 33.4483 708.761 35.9013L709.533 37.7467ZM857.302 34.52H858.302V33.52H857.302V34.52ZM857.302 119V120H858.302V119H857.302ZM831.062 119H830.062V120H831.062V119ZM831.062 34.52V33.52H830.062V34.52H831.062ZM803.67 34.52H804.67V33.52H803.67V34.52ZM803.67 119V120H804.67V119H803.67ZM777.558 119H776.558V120H777.558V119ZM777.558 34.52V33.52H776.558V34.52H777.558ZM845.398 66.648H846.398V65.648H845.398V66.648ZM845.398 86.232V87.232H846.398V86.232H845.398ZM790.23 86.232H789.23V87.232H790.23V86.232ZM790.23 66.648V65.648H789.23V66.648H790.23ZM856.302 34.52V119H858.302V34.52H856.302ZM857.302 118H831.062V120H857.302V118ZM832.062 119V34.52H830.062V119H832.062ZM831.062 35.52H857.302V33.52H831.062V35.52ZM802.67 34.52V119H804.67V34.52H802.67ZM803.67 118H777.558V120H803.67V118ZM778.558 119V34.52H776.558V119H778.558ZM777.558 35.52H803.67V33.52H777.558V35.52ZM844.398 66.648V86.232H846.398V66.648H844.398ZM845.398 85.232H790.23V87.232H845.398V85.232ZM791.23 86.232V66.648H789.23V86.232H791.23ZM790.23 67.648H845.398V65.648H790.23V67.648ZM872.933 119H871.933V120H872.933V119ZM872.933 34.52V33.52H871.933V34.52H872.933ZM941.029 34.52H942.029V33.52H941.029V34.52ZM941.029 54.104V55.104H942.029V54.104H941.029ZM899.045 54.104V53.104H898.045V54.104H899.045ZM899.045 67.8H898.045V68.8H899.045V67.8ZM932.581 67.8H933.581V66.8H932.581V67.8ZM932.581 85.976V86.976H933.581V85.976H932.581ZM899.045 85.976V84.976H898.045V85.976H899.045ZM899.045 99.416H898.045V100.416H899.045V99.416ZM942.693 99.416H943.693V98.416H942.693V99.416ZM942.693 119V120H943.693V119H942.693ZM873.933 119V34.52H871.933V119H873.933ZM872.933 35.52H941.029V33.52H872.933V35.52ZM940.029 34.52V54.104H942.029V34.52H940.029ZM941.029 53.104H899.045V55.104H941.029V53.104ZM898.045 54.104V67.8H900.045V54.104H898.045ZM899.045 68.8H932.581V66.8H899.045V68.8ZM931.581 67.8V85.976H933.581V67.8H931.581ZM932.581 84.976H899.045V86.976H932.581V84.976ZM898.045 85.976V99.416H900.045V85.976H898.045ZM899.045 100.416H942.693V98.416H899.045V100.416ZM941.693 99.416V119H943.693V99.416H941.693ZM942.693 118H872.933V120H942.693V118ZM1022.3 45.528L1021.57 46.2136V46.2136L1022.3 45.528ZM1022.3 107.992L1023.03 108.678L1023.03 108.673L1022.3 107.992ZM953.308 119H952.308V120H953.308V119ZM953.308 34.52V33.52H952.308V34.52H953.308ZM1002.08 94.296L1002.91 94.8463L1002.92 94.8377L1002.08 94.296ZM1002.08 59.352L1001.24 59.8937L1001.24 59.9023L1002.08 59.352ZM979.42 53.592V52.592H978.42V53.592H979.42ZM979.42 99.928H978.42V100.928H979.42V99.928ZM992.092 35.52C1005.13 35.52 1014.9 39.1329 1021.57 46.2136L1023.03 44.8424C1015.87 37.2457 1005.5 33.52 992.092 33.52V35.52ZM1021.57 46.2136C1028.26 53.3114 1031.67 63.4442 1031.67 76.76H1033.67C1033.67 63.1104 1030.17 52.422 1023.03 44.8424L1021.57 46.2136ZM1031.67 76.76C1031.67 89.9876 1028.26 100.125 1021.57 107.311L1023.03 108.673C1030.17 101.011 1033.67 90.327 1033.67 76.76H1031.67ZM1021.57 107.306C1014.9 114.387 1005.13 118 992.092 118V120C1005.5 120 1015.87 116.274 1023.03 108.678L1021.57 107.306ZM992.092 118H953.308V120H992.092V118ZM954.308 119V34.52H952.308V119H954.308ZM953.308 35.52H992.092V33.52H953.308V35.52ZM988.892 100.928C995.395 100.928 1000.18 98.9862 1002.91 94.8463L1001.24 93.7457C999.02 97.1152 995.018 98.928 988.892 98.928V100.928ZM1002.92 94.8377C1005.55 90.7576 1006.79 84.6808 1006.79 76.76H1004.79C1004.79 84.5405 1003.56 90.1544 1001.24 93.7543L1002.92 94.8377ZM1006.79 76.76C1006.79 68.842 1005.55 62.8013 1002.91 58.8017L1001.24 59.9023C1003.55 63.4121 1004.79 68.9766 1004.79 76.76H1006.79ZM1002.92 58.8103C1000.19 54.5823 995.404 52.592 988.892 52.592V54.592C995.01 54.592 999.011 56.4417 1001.24 59.8937L1002.92 58.8103ZM988.892 52.592H979.42V54.592H988.892V52.592ZM978.42 53.592V99.928H980.42V53.592H978.42ZM979.42 100.928H988.892V98.928H979.42V100.928Z" fill="black" mask="url(#path-5-outside-3_201_523)"/>
<defs>
<linearGradient id="paint0_linear_201_523" x1="519" y1="48" x2="519" y2="198" gradientUnits="userSpaceOnUse">
<stop stop-color="white" stop-opacity="0"/>
<stop offset="1" stop-color="white" stop-opacity="0.5"/>
</linearGradient>
<linearGradient id="paint1_linear_201_523" x1="519" y1="48" x2="519" y2="198" gradientUnits="userSpaceOnUse">
<stop stop-color="white" stop-opacity="0"/>
<stop offset="1" stop-color="white" stop-opacity="0.5"/>
</linearGradient>
<linearGradient id="paint2_linear_201_523" x1="519" y1="24" x2="519" y2="174" gradientUnits="userSpaceOnUse">
<stop stop-color="#F77913"/>
<stop offset="1" stop-color="#F77913" stop-opacity="0"/>
</linearGradient>
</defs>
</svg>
