<svg width="192" height="48" viewBox="0 0 192 48" fill="none" xmlns="http://www.w3.org/2000/svg">
<rect width="48" height="48" rx="24" fill="#F77913"/>
<path d="M34.5263 19.5895V28.4105C34.5263 31.7895 31.7894 34.5263 28.4105 34.5263H19.5894C16.2105 34.5263 13.4736 31.7895 13.4736 28.4105V19.5895C13.4736 16.9684 14.5473 15.0632 16.4526 14.1369C17.1473 13.8 17.9473 14.3263 17.9473 15.0947V24.4421C17.9473 25.6947 18.4315 26.6947 19.3052 27.2C20.1894 27.6947 21.3052 27.5895 22.4421 26.9053L23.8105 26.0842C23.8947 26.0421 24.1052 26.0421 24.1684 26.0737L25.5578 26.9053C26.3157 27.3579 26.9684 27.5053 27.4947 27.5053C28.0421 27.5053 28.4631 27.3368 28.7157 27.1895C29.5684 26.6947 30.0526 25.6947 30.0526 24.4421V15.0947C30.0526 14.3263 30.8631 13.8 31.5473 14.1369C33.4526 15.0632 34.5263 16.9684 34.5263 19.5895Z" fill="white"/>
<path d="M27.4211 13.4737C28.0001 13.4737 28.4737 13.9473 28.4737 14.5263V24.4421C28.4737 25.1158 28.2737 25.621 27.9264 25.821C27.5685 26.0316 27.0001 25.9263 26.3685 25.5473L24.979 24.7158C24.4422 24.3895 23.5579 24.3895 23.0211 24.7158L21.6316 25.5473C21.0001 25.9263 20.4316 26.021 20.0737 25.821C19.7264 25.621 19.5264 25.1158 19.5264 24.4421V14.5263C19.5264 13.9473 20.0001 13.4737 20.579 13.4737H27.4211Z" fill="white"/>
<path d="M62.4688 12.25V35H58.1719V12.25H62.4688ZM71.6406 22.0781V25.4688H61.3438V22.0781H71.6406ZM72.8438 12.25V15.6406H61.3438V12.25H72.8438ZM85.1719 30.9844V18.0938H89.3281V35H85.4219L85.1719 30.9844ZM85.7031 27.4844L86.9844 27.4531C86.9844 28.5885 86.8594 29.6354 86.6094 30.5938C86.3594 31.5521 85.9688 32.3854 85.4375 33.0938C84.9167 33.7917 84.2552 34.3385 83.4531 34.7344C82.651 35.1198 81.7031 35.3125 80.6094 35.3125C79.776 35.3125 79.0156 35.1979 78.3281 34.9688C77.6406 34.7292 77.0469 34.3594 76.5469 33.8594C76.0573 33.349 75.6771 32.6979 75.4062 31.9062C75.1354 31.1042 75 30.1406 75 29.0156V18.0938H79.125V29.0469C79.125 29.6094 79.1875 30.0781 79.3125 30.4531C79.4479 30.8281 79.6302 31.1354 79.8594 31.375C80.099 31.6042 80.375 31.7708 80.6875 31.875C81.0104 31.9688 81.3542 32.0156 81.7188 32.0156C82.7188 32.0156 83.5052 31.8177 84.0781 31.4219C84.6615 31.0156 85.0781 30.474 85.3281 29.7969C85.5781 29.1094 85.7031 28.3385 85.7031 27.4844ZM97.1094 21.5469V35H92.9844V18.0938H96.8906L97.1094 21.5469ZM102.25 17.9844L102.188 21.8281C101.958 21.7865 101.698 21.7552 101.406 21.7344C101.125 21.7135 100.859 21.7031 100.609 21.7031C99.974 21.7031 99.4167 21.7917 98.9375 21.9688C98.4583 22.1354 98.0573 22.3802 97.7344 22.7031C97.4219 23.026 97.1823 23.4219 97.0156 23.8906C96.849 24.349 96.7552 24.8698 96.7344 25.4531L95.8438 25.3438C95.8438 24.2708 95.9531 23.276 96.1719 22.3594C96.3906 21.4427 96.7083 20.6406 97.125 19.9531C97.5417 19.2656 98.0625 18.7344 98.6875 18.3594C99.3229 17.974 100.052 17.7812 100.875 17.7812C101.104 17.7812 101.349 17.8021 101.609 17.8438C101.88 17.875 102.094 17.9219 102.25 17.9844ZM108.562 21.7031V35H104.438V18.0938H108.312L108.562 21.7031ZM107.906 25.9375H106.688C106.698 24.7083 106.865 23.5938 107.188 22.5938C107.51 21.5938 107.964 20.7344 108.547 20.0156C109.141 19.2969 109.844 18.7448 110.656 18.3594C111.469 17.974 112.375 17.7812 113.375 17.7812C114.188 17.7812 114.922 17.8958 115.578 18.125C116.234 18.3542 116.797 18.7188 117.266 19.2188C117.745 19.7188 118.109 20.375 118.359 21.1875C118.62 21.9896 118.75 22.9792 118.75 24.1562V35H114.594V24.125C114.594 23.3542 114.479 22.7448 114.25 22.2969C114.031 21.849 113.708 21.5312 113.281 21.3438C112.865 21.1562 112.349 21.0625 111.734 21.0625C111.099 21.0625 110.542 21.1927 110.062 21.4531C109.594 21.7031 109.198 22.0521 108.875 22.5C108.562 22.9479 108.323 23.4635 108.156 24.0469C107.99 24.6302 107.906 25.2604 107.906 25.9375ZM126.766 18.0938V35H122.625V18.0938H126.766ZM122.344 13.6719C122.344 13.0573 122.552 12.5469 122.969 12.1406C123.396 11.7344 123.969 11.5312 124.688 11.5312C125.406 11.5312 125.974 11.7344 126.391 12.1406C126.818 12.5469 127.031 13.0573 127.031 13.6719C127.031 14.276 126.818 14.7812 126.391 15.1875C125.974 15.5938 125.406 15.7969 124.688 15.7969C123.969 15.7969 123.396 15.5938 122.969 15.1875C122.552 14.7812 122.344 14.276 122.344 13.6719ZM140 30.375C140 30.0208 139.906 29.7031 139.719 29.4219C139.531 29.1406 139.177 28.8854 138.656 28.6562C138.146 28.4167 137.396 28.1927 136.406 27.9844C135.531 27.7969 134.724 27.5625 133.984 27.2812C133.245 27 132.609 26.6615 132.078 26.2656C131.547 25.8594 131.13 25.3854 130.828 24.8438C130.536 24.2917 130.391 23.6562 130.391 22.9375C130.391 22.2396 130.542 21.5833 130.844 20.9688C131.146 20.3438 131.583 19.7969 132.156 19.3281C132.729 18.849 133.427 18.474 134.25 18.2031C135.073 17.9219 136 17.7812 137.031 17.7812C138.469 17.7812 139.703 18.0156 140.734 18.4844C141.776 18.9531 142.573 19.599 143.125 20.4219C143.677 21.2344 143.953 22.151 143.953 23.1719H139.828C139.828 22.724 139.724 22.3177 139.516 21.9531C139.318 21.5885 139.01 21.2969 138.594 21.0781C138.177 20.849 137.651 20.7344 137.016 20.7344C136.443 20.7344 135.958 20.8281 135.562 21.0156C135.177 21.2031 134.885 21.4479 134.688 21.75C134.49 22.0521 134.391 22.3854 134.391 22.75C134.391 23.0208 134.443 23.2656 134.547 23.4844C134.661 23.6927 134.844 23.8854 135.094 24.0625C135.344 24.2396 135.682 24.401 136.109 24.5469C136.547 24.6927 137.083 24.8333 137.719 24.9688C138.979 25.2188 140.078 25.5521 141.016 25.9688C141.964 26.375 142.703 26.9167 143.234 27.5938C143.766 28.2708 144.031 29.1354 144.031 30.1875C144.031 30.9375 143.87 31.625 143.547 32.25C143.224 32.8646 142.755 33.401 142.141 33.8594C141.526 34.3177 140.792 34.6771 139.938 34.9375C139.083 35.1875 138.12 35.3125 137.047 35.3125C135.495 35.3125 134.182 35.0365 133.109 34.4844C132.036 33.9219 131.224 33.2135 130.672 32.3594C130.12 31.4948 129.844 30.599 129.844 29.6719H133.797C133.828 30.3281 134.005 30.8542 134.328 31.25C134.651 31.6458 135.057 31.9323 135.547 32.1094C136.047 32.276 136.573 32.3594 137.125 32.3594C137.75 32.3594 138.276 32.276 138.703 32.1094C139.13 31.9323 139.453 31.6979 139.672 31.4062C139.891 31.1042 140 30.7604 140 30.375ZM151.219 11V35H147.078V11H151.219ZM150.562 25.9375H149.344C149.344 24.7604 149.5 23.6771 149.812 22.6875C150.125 21.6979 150.568 20.8385 151.141 20.1094C151.714 19.3698 152.396 18.7969 153.188 18.3906C153.99 17.9844 154.875 17.7812 155.844 17.7812C156.677 17.7812 157.432 17.901 158.109 18.1406C158.797 18.3698 159.385 18.7396 159.875 19.25C160.365 19.7604 160.74 20.4271 161 21.25C161.271 22.0625 161.406 23.0521 161.406 24.2188V35H157.25V24.1875C157.25 23.4062 157.135 22.7917 156.906 22.3438C156.677 21.8854 156.349 21.5573 155.922 21.3594C155.505 21.1615 154.99 21.0625 154.375 21.0625C153.708 21.0625 153.135 21.1927 152.656 21.4531C152.177 21.7031 151.781 22.0521 151.469 22.5C151.167 22.9479 150.938 23.4635 150.781 24.0469C150.635 24.6302 150.562 25.2604 150.562 25.9375ZM169.938 12.25V35H165.641V12.25H169.938ZM183.875 12.25V35H179.594V12.25H183.875ZM190.938 12.25V15.6406H172.609V12.25H190.938Z" fill="white"/>
</svg>
