<svg width="137" height="137" viewBox="0 0 137 137" fill="none" xmlns="http://www.w3.org/2000/svg">
<rect width="137" height="137" rx="68.5" fill="#F77913"/>
<path d="M56.2291 123.696L56.4468 122.038L59.1276 122.39L59.9902 115.819L62.1348 116.101L61.2723 122.673L63.9656 123.027L63.7479 124.685L56.2291 123.696Z" fill="#1D1D1D"/>
<path d="M46.4658 120.55L49.035 112.657L51.0915 113.328L48.5223 121.221L46.4658 120.55ZM51.5354 122.203L54.1045 114.31L56.161 114.981L53.5919 122.874L51.5354 122.203ZM48.4383 117.74L48.956 116.15L54.1212 117.835L53.6035 119.425L48.4383 117.74Z" fill="#1D1D1D"/>
<path d="M47.3005 111.62L43.3291 118.909L37.6554 115.811L38.4557 114.342L42.2308 116.403L43.0371 114.923L40.0347 113.284L40.7869 111.904L43.7893 113.543L44.6016 112.052L40.6831 109.913L41.4834 108.444L47.3005 111.62Z" fill="#1D1D1D"/>
<path d="M35.7217 103.622L29.7679 109.405L26.958 106.507C26.2521 105.767 25.8682 105.087 25.8064 104.47C25.7385 103.858 25.9632 103.3 26.4804 102.798C26.8172 102.471 27.2052 102.287 27.6443 102.246C28.0774 102.211 28.5255 102.366 28.9885 102.711L28.9975 102.702C28.6141 102.186 28.4438 101.691 28.4865 101.217C28.5173 100.743 28.7131 100.331 29.074 99.9805C29.5852 99.4839 30.1571 99.2789 30.7899 99.3656C31.4167 99.4581 32.0803 99.8655 32.7805 100.588L35.7217 103.622ZM33.1771 103.183L31.9428 101.91C31.6686 101.627 31.4072 101.472 31.1587 101.444C30.9102 101.417 30.6777 101.508 30.4612 101.719C30.2507 101.923 30.1585 102.147 30.1844 102.391C30.2044 102.64 30.3515 102.907 30.6258 103.189L31.86 104.463L33.1771 103.183ZM30.7504 105.541L29.6563 104.412C29.1194 103.858 28.6344 103.791 28.2014 104.212C27.7684 104.633 27.8204 105.12 28.3572 105.674L29.4514 106.802L30.7504 105.541Z" fill="#1D1D1D"/>
<path d="M29.8512 96.9814L22.9663 101.618L19.3608 96.2524L20.7482 95.3181L23.1472 98.888L24.545 97.9467L22.637 95.1075L23.941 94.2294L25.849 97.0686L27.2572 96.1203L24.7671 92.4147L26.1545 91.4804L29.8512 96.9814Z" fill="#1D1D1D"/>
<path d="M16.5471 90.4136C16.2327 89.7092 16.067 89.0394 16.0498 88.4042C16.0215 87.7647 16.129 87.1518 16.3723 86.5654L18.072 86.9488C17.8745 87.432 17.777 87.9027 17.7794 88.3608C17.7708 88.8147 17.8741 89.2829 18.0894 89.7652C18.2158 90.0485 18.3489 90.2645 18.4887 90.4132C18.6285 90.562 18.7691 90.6506 18.9104 90.6793C19.0518 90.7079 19.1913 90.6915 19.3291 90.6299C19.4898 90.558 19.5951 90.4236 19.645 90.2268C19.6838 90.0258 19.6663 89.7397 19.5925 89.3686L19.3107 87.9654C19.1485 87.1287 19.1572 86.459 19.3368 85.9562C19.5164 85.4534 19.8855 85.0771 20.4443 84.8272C20.98 84.5876 21.497 84.5218 21.995 84.6297C22.4854 84.7411 22.9339 84.9951 23.3405 85.3919C23.7394 85.7922 24.0773 86.3024 24.354 86.9225C24.5795 87.4279 24.7412 87.9342 24.839 88.4415C24.9292 88.9522 24.953 89.4375 24.9103 89.8975C24.8677 90.3574 24.7688 90.7736 24.6137 91.146L22.868 90.7832C23.0045 90.4925 23.0993 90.17 23.1524 89.8157C23.1943 89.4571 23.1916 89.0909 23.1442 88.7172C23.0934 88.3358 22.9911 87.9729 22.8373 87.6283C22.7177 87.3603 22.5919 87.1503 22.4597 86.9981C22.3241 86.8383 22.184 86.7403 22.0392 86.704C21.8945 86.6677 21.7494 86.682 21.604 86.7471C21.4433 86.8189 21.3349 86.9363 21.279 87.099C21.2155 87.2652 21.2172 87.5262 21.2841 87.882L21.5994 89.4218C21.6912 89.895 21.732 90.336 21.7216 90.7448C21.7001 91.1493 21.5943 91.5089 21.4042 91.8235C21.2064 92.1416 20.897 92.3947 20.4761 92.5829C20.0015 92.7951 19.5225 92.8532 19.0389 92.7572C18.5477 92.6646 18.0856 92.4212 17.6527 92.027C17.2197 91.6328 16.8512 91.095 16.5471 90.4136Z" fill="#1D1D1D"/>
<path d="M12.7806 77.5353L14.402 77.1242L15.0652 79.7455L21.4897 78.1167L22.0202 80.2137L15.5958 81.8426L16.2621 84.4761L14.6407 84.8872L12.7806 77.5353Z" fill="#1D1D1D"/>
<path d="M13.932 54.1313L15.5805 54.4142L15.1241 57.0793L21.6564 58.2003L21.2912 60.3324L14.759 59.2114L14.3004 61.8889L12.6519 61.606L13.932 54.1313Z" fill="#1D1D1D"/>
<path d="M17.4505 44.4877L25.2348 47.3687L24.4854 49.3978L16.701 46.5168L17.4505 44.4877ZM15.603 49.4898L23.3874 52.3708L22.638 54.4L14.8536 51.519L15.603 49.4898ZM20.1803 46.5708L21.7489 47.1513L19.8666 52.2478L18.298 51.6673L20.1803 46.5708Z" fill="#1D1D1D"/>
<path d="M26.3355 45.668L19.2116 41.408L22.5241 35.857L23.9597 36.7154L21.7556 40.4089L23.202 41.2738L24.9549 38.3363L26.3041 39.1431L24.5512 42.0806L26.0084 42.952L28.2962 39.1181L29.7318 39.9765L26.3355 45.668Z" fill="#1D1D1D"/>
<path d="M34.7705 34.3948L29.2308 28.2135L32.2344 25.5161C33.001 24.8389 33.6939 24.4814 34.3131 24.4437C34.9267 24.3998 35.4741 24.6463 35.9554 25.1832C36.2687 25.5329 36.4372 25.9281 36.4607 26.369C36.4787 26.8036 36.3064 27.2457 35.9438 27.6954L35.9522 27.7047C36.4822 27.3414 36.9829 27.1903 37.4543 27.2515C37.9264 27.3009 38.3303 27.5129 38.6661 27.8875C39.1417 28.4182 39.3239 28.9984 39.2126 29.628C39.0957 30.2513 38.663 30.8991 37.9144 31.5714L34.7705 34.3948ZM35.3081 31.8667L36.6275 30.6818C36.9206 30.4185 37.0858 30.1631 37.123 29.9156C37.1601 29.6682 37.078 29.432 36.8765 29.2073C36.6807 28.9887 36.4607 28.8877 36.2165 28.9042C35.9667 28.9144 35.6952 29.0511 35.402 29.3144L34.0827 30.4993L35.3081 31.8667ZM33.0503 29.3473L34.2199 28.2969C34.7938 27.7815 34.8793 27.299 34.4764 26.8495C34.0735 26.3999 33.5851 26.4329 33.0112 26.9483L31.8416 27.9987L33.0503 29.3473Z" fill="#1D1D1D"/>
<path d="M41.6276 28.7795L37.2709 21.7144L42.77 18.3163L43.6479 19.7401L39.989 22.001L40.8735 23.4354L43.7836 21.6373L44.6087 22.9754L41.6987 24.7735L42.5898 26.2187L46.3878 23.8718L47.2657 25.2955L41.6276 28.7795Z" fill="#1D1D1D"/>
<path d="M48.7068 15.7294C49.4227 15.4423 50.0982 15.3024 50.7333 15.3098C51.373 15.3062 51.9809 15.4373 52.5569 15.7032L52.1066 17.3878C51.6318 17.1716 51.1656 17.056 50.708 17.0407C50.255 17.0146 49.7834 17.0998 49.2932 17.2964C49.0052 17.4118 48.7842 17.5366 48.6302 17.6706C48.4761 17.8047 48.3819 17.9418 48.3477 18.082C48.3135 18.2221 48.3244 18.3623 48.3805 18.5024C48.4459 18.6659 48.5759 18.7763 48.7705 18.8338C48.9697 18.8804 49.2561 18.874 49.6297 18.8145L51.0422 18.5869C51.8843 18.457 52.5528 18.4916 53.0478 18.6905C53.5428 18.8895 53.904 19.2731 54.1314 19.8414C54.3494 20.3863 54.3947 20.9056 54.2671 21.3994C54.1365 21.8853 53.865 22.3239 53.4526 22.7151C53.0371 23.0985 52.5141 23.4166 51.8838 23.6693C51.3702 23.8753 50.8581 24.0173 50.3476 24.0956C49.8339 24.166 49.3483 24.1711 48.8907 24.1107C48.433 24.0503 48.0213 23.9353 47.6555 23.7658L48.0871 22.0346C48.3719 22.1823 48.6903 22.2895 49.0421 22.3562C49.3985 22.412 49.7643 22.4235 50.1394 22.3905C50.5223 22.3544 50.8889 22.2661 51.2391 22.1257C51.5114 22.0165 51.7262 21.8988 51.8834 21.7725C52.0484 21.6431 52.1518 21.5068 52.1938 21.3635C52.2358 21.2202 52.2272 21.0746 52.1681 20.9267C52.1026 20.7632 51.9898 20.6504 51.8294 20.5882C51.666 20.5183 51.4053 20.5099 51.0473 20.5631L49.497 20.8189C49.0207 20.8924 48.5787 20.9161 48.1709 20.8899C47.7677 20.8528 47.4128 20.7332 47.1061 20.5309C46.7963 20.3209 46.5558 20.0019 46.3845 19.5737C46.1914 19.0911 46.1524 18.6099 46.2674 18.1302C46.3794 17.6427 46.6408 17.1901 47.0516 16.7724C47.4625 16.3548 48.0142 16.0071 48.7068 15.7294Z" fill="#1D1D1D"/>
<path d="M61.7122 12.4639L62.0587 14.1002L59.4137 14.6616L60.787 21.1455L58.671 21.5946L57.2977 15.1107L54.6404 15.6747L54.2938 14.0383L61.7122 12.4639Z" fill="#1D1D1D"/>
<path d="M85.0321 14.5358L84.6855 16.1722L82.0405 15.6108L80.6672 22.0947L78.5512 21.6456L79.9245 15.1617L77.2672 14.5977L77.6138 12.9614L85.0321 14.5358Z" fill="#1D1D1D"/>
<path d="M94.5207 18.4329L91.3427 26.1008L89.345 25.2712L92.523 17.6032L94.5207 18.4329ZM89.5961 16.3877L86.4182 24.0556L84.4205 23.2259L87.5984 15.558L89.5961 16.3877ZM92.3348 21.0793L91.6944 22.6245L86.6769 20.5407L87.3173 18.9955L92.3348 21.0793Z" fill="#1D1D1D"/>
<path d="M92.9895 27.2737L97.5184 20.3177L102.932 23.8499L102.02 25.2517L98.4174 22.9014L97.4979 24.3137L100.363 26.1829L99.5051 27.5003L96.6401 25.6311L95.7138 27.0539L99.4529 29.4935L98.5403 30.8952L92.9895 27.2737Z" fill="#1D1D1D"/>
<path d="M103.907 36.1547L110.295 30.8545L112.869 33.964C113.515 34.7572 113.845 35.4642 113.858 36.085C113.878 36.7005 113.61 37.2385 113.056 37.6989C112.694 37.9987 112.293 38.1518 111.852 38.1582C111.417 38.1592 110.983 37.9696 110.548 37.5894L110.539 37.5974C110.88 38.1417 111.012 38.6485 110.932 39.1176C110.864 39.5879 110.637 39.9836 110.25 40.3048C109.701 40.7599 109.115 40.9195 108.491 40.7837C107.873 40.6425 107.243 40.1844 106.602 39.4094L103.907 36.1547ZM106.409 36.791L107.54 38.1568C107.792 38.4604 108.04 38.6355 108.286 38.6823C108.531 38.7291 108.77 38.6562 109.002 38.4634C109.228 38.2761 109.338 38.0599 109.331 37.815C109.331 37.5648 109.205 37.2879 108.953 36.9844L107.822 35.6185L106.409 36.791ZM109.013 34.6308L110.016 35.8416C110.507 36.4357 110.986 36.5401 111.45 36.1546C111.915 35.7691 111.901 35.2794 111.409 34.6852L110.407 33.4744L109.013 34.6308Z" fill="#1D1D1D"/>
<path d="M109.241 43.2321L116.468 39.1487L119.643 44.7794L118.187 45.6023L116.074 41.8558L114.607 42.6848L116.287 45.6645L114.918 46.4379L113.238 43.4582L111.76 44.2935L113.953 48.1824L112.497 49.0053L109.241 43.2321Z" fill="#1D1D1D"/>
<path d="M121.991 50.8207C122.249 51.5475 122.362 52.2282 122.33 52.8628C122.308 53.5024 122.153 54.105 121.864 54.6706L120.2 54.1554C120.434 53.6891 120.568 53.2275 120.602 52.7706C120.646 52.3188 120.579 51.8441 120.403 51.3464C120.299 51.0541 120.183 50.8283 120.055 50.6691C119.927 50.5099 119.794 50.4105 119.655 50.3709C119.517 50.3313 119.376 50.3368 119.234 50.3874C119.068 50.4465 118.953 50.5722 118.888 50.7645C118.833 50.9619 118.828 51.2484 118.873 51.6242L119.044 53.045C119.141 53.8918 119.08 54.5588 118.861 55.046C118.643 55.5332 118.245 55.8795 117.669 56.0848C117.116 56.2817 116.596 56.3069 116.107 56.1604C115.627 56.011 115.2 55.7226 114.826 55.2952C114.459 54.8651 114.162 54.33 113.935 53.6901C113.749 53.1687 113.628 52.6513 113.57 52.1379C113.52 51.6217 113.534 51.136 113.613 50.6809C113.691 50.2257 113.822 49.8186 114.006 49.4594L115.718 49.9577C115.559 50.2368 115.439 50.5509 115.359 50.9C115.289 51.2542 115.263 51.6194 115.281 51.9957C115.302 52.3798 115.376 52.7497 115.502 53.1052C115.6 53.3817 115.709 53.6009 115.829 53.7629C115.952 53.9329 116.084 54.0416 116.225 54.0891C116.367 54.1366 116.513 54.1336 116.663 54.0802C116.829 54.0211 116.946 53.9126 117.014 53.7547C117.091 53.594 117.109 53.3337 117.07 52.9738L116.876 51.4141C116.822 50.9352 116.816 50.4923 116.858 50.0857C116.911 49.6841 117.045 49.3339 117.259 49.0351C117.481 48.7335 117.809 48.5054 118.243 48.3506C118.733 48.1762 119.215 48.1558 119.69 48.2894C120.172 48.4201 120.614 48.6989 121.015 49.1258C121.416 49.5526 121.741 50.1176 121.991 50.8207Z" fill="#1D1D1D"/>
<path d="M124.74 63.9533L123.092 64.2362L122.635 61.5711L116.103 62.6921L115.738 60.56L122.27 59.439L121.811 56.7614L123.46 56.4785L124.74 63.9533Z" fill="#1D1D1D"/>
<path d="M121.766 87.1978L120.144 86.7867L120.808 84.1654L114.383 82.5365L114.914 80.4395L121.338 82.0683L122.004 79.4348L123.626 79.8459L121.766 87.1978Z" fill="#1D1D1D"/>
<path d="M117.503 96.5372L109.968 93.0559L110.873 91.0915L118.409 94.5728L117.503 96.5372ZM119.735 91.6947L112.2 88.2134L113.106 86.249L120.641 89.7303L119.735 91.6947ZM114.944 94.2468L113.426 93.5453L115.701 88.6114L117.219 89.313L114.944 94.2468Z" fill="#1D1D1D"/>
<path d="M108.738 94.6638L115.507 99.4679L111.77 104.743L110.406 103.775L112.892 100.265L111.518 99.2896L109.541 102.081L108.259 101.171L110.236 98.3798L108.852 97.3971L106.271 101.04L104.907 100.072L108.738 94.6638Z" fill="#1D1D1D"/>
<path d="M99.4498 105.243L104.489 111.838L101.284 114.292C100.467 114.907 99.7479 115.21 99.1277 115.199C98.5125 115.195 97.986 114.906 97.5482 114.333C97.2632 113.96 97.1261 113.553 97.1371 113.112C97.1532 112.677 97.3595 112.25 97.7562 111.83L97.7486 111.82C97.1918 112.14 96.6807 112.252 96.2155 112.154C95.7488 112.068 95.3627 111.825 95.0573 111.425C94.6246 110.859 94.4883 110.266 94.6485 109.647C94.8138 109.035 95.2958 108.423 96.0946 107.811L99.4498 105.243ZM98.7161 107.721L97.3081 108.799C96.9952 109.038 96.8106 109.28 96.7542 109.524C96.6978 109.768 96.7613 110.01 96.9445 110.249C97.1227 110.483 97.3341 110.601 97.5789 110.603C97.8287 110.613 98.11 110.497 98.4229 110.258L99.8309 109.18L98.7161 107.721ZM100.77 110.409L99.5219 111.365C98.9094 111.834 98.7865 112.308 99.153 112.788C99.5195 113.267 100.009 113.273 100.621 112.804L101.87 111.848L100.77 110.409Z" fill="#1D1D1D"/>
<path d="M92.1761 110.304L95.9673 117.688L90.2192 120.645L89.4552 119.157L93.2798 117.189L92.5101 115.69L89.4683 117.255L88.7502 115.857L91.792 114.292L91.0166 112.781L87.0466 114.824L86.2826 113.336L92.1761 110.304Z" fill="#1D1D1D"/>
<path d="M84.0977 122.759C83.3615 122.989 82.6771 123.076 82.0446 123.019C81.4065 122.972 80.8107 122.794 80.2573 122.484L80.8378 120.84C81.2943 121.092 81.75 121.244 82.2051 121.295C82.6546 121.356 83.1315 121.308 83.6356 121.151C83.9317 121.058 84.1618 120.951 84.3258 120.83C84.4899 120.708 84.5945 120.579 84.6396 120.442C84.6846 120.305 84.6847 120.164 84.6397 120.02C84.5873 119.852 84.4663 119.732 84.2768 119.659C84.0818 119.597 83.7958 119.581 83.4187 119.611L81.9927 119.727C81.143 119.791 80.4792 119.704 80.0012 119.467C79.5233 119.23 79.1931 118.819 79.0109 118.235C78.8361 117.675 78.8315 117.154 78.9973 116.671C79.1655 116.197 79.4705 115.781 79.9122 115.423C80.3564 115.074 80.9026 114.798 81.5508 114.595C82.079 114.43 82.6006 114.328 83.1157 114.29C83.6333 114.26 84.1178 114.293 84.5694 114.389C85.0209 114.485 85.4224 114.632 85.7739 114.83L85.2083 116.522C84.9358 116.352 84.6268 116.22 84.2813 116.126C83.9303 116.043 83.5665 116.003 83.19 116.006C82.8054 116.012 82.4331 116.072 82.073 116.184C81.7929 116.272 81.5695 116.372 81.403 116.486C81.2284 116.602 81.1146 116.73 81.0615 116.869C81.0084 117.009 81.0056 117.155 81.0531 117.307C81.1055 117.475 81.2092 117.596 81.3642 117.671C81.5217 117.753 81.781 117.782 82.1421 117.757L83.7076 117.623C84.1882 117.587 84.6308 117.598 85.0353 117.656C85.4343 117.725 85.7788 117.872 86.0688 118.097C86.3612 118.331 86.5761 118.668 86.7135 119.108C86.8683 119.604 86.8696 120.087 86.7173 120.556C86.5676 121.034 86.2716 121.464 85.8294 121.849C85.3872 122.233 84.81 122.536 84.0977 122.759Z" fill="#1D1D1D"/>
<path d="M70.8765 124.996L70.6588 123.337L73.3396 122.984L72.477 116.413L74.6217 116.131L75.4843 122.702L78.1776 122.348L78.3953 124.007L70.8765 124.996Z" fill="#1D1D1D"/>
<path d="M68.5 34.25L75.039 61.961L102.75 68.5L75.039 75.039L68.5 102.75L61.961 75.039L34.25 68.5L61.961 61.961L68.5 34.25Z" fill="#1D1D1D"/>
</svg>
