<svg width="98" height="98" viewBox="0 0 98 98" fill="none" xmlns="http://www.w3.org/2000/svg">
<rect width="98" height="98" rx="49" fill="#F77913"/>
<path d="M40.2764 88.071L40.4321 86.8847L42.3498 87.137L42.9668 82.4363L44.501 82.6381L43.884 87.3388L45.8105 87.5922L45.6548 88.7785L40.2764 88.071Z" fill="black"/>
<path d="M33.367 85.8371L35.2047 80.1911L36.6758 80.671L34.838 86.3169L33.367 85.8371ZM36.9933 87.0199L38.8311 81.374L40.3022 81.8538L38.4644 87.4998L36.9933 87.0199ZM34.7779 83.8275L35.1483 82.6898L38.8431 83.895L38.4727 85.0327L34.7779 83.8275Z" fill="black"/>
<path d="M34.0341 79.4799L31.1932 84.6937L27.1347 82.4777L27.7072 81.427L30.4076 82.9015L30.9843 81.8429L28.8367 80.6703L29.3747 79.6828L31.5224 80.8555L32.1035 79.789L29.3004 78.2585L29.8729 77.2079L34.0341 79.4799Z" fill="black"/>
<path d="M25.851 73.834L21.592 77.9711L19.582 75.8976C19.0771 75.368 18.8025 74.8822 18.7582 74.4403C18.7097 74.0024 18.8704 73.6038 19.2404 73.2445C19.4813 73.0104 19.7588 72.8788 20.073 72.8496C20.3828 72.8245 20.7033 72.9355 21.0345 73.1823L21.041 73.176C20.7667 72.807 20.6449 72.4529 20.6754 72.1139C20.6975 71.7747 20.8375 71.4798 21.0957 71.2291C21.4613 70.8739 21.8705 70.7273 22.3231 70.7892C22.7715 70.8554 23.2461 71.1468 23.7471 71.6636L25.851 73.834ZM24.0307 73.5202L23.1478 72.6094C22.9516 72.407 22.7647 72.296 22.5869 72.2763C22.4092 72.2567 22.2429 72.3221 22.088 72.4725C21.9374 72.6188 21.8714 72.779 21.89 72.9533C21.9043 73.1317 22.0095 73.3222 22.2057 73.5246L23.0886 74.4353L24.0307 73.5202ZM22.2949 75.2063L21.5122 74.3989C21.1281 74.0027 20.7812 73.9551 20.4715 74.256C20.1618 74.5568 20.1989 74.9054 20.583 75.3015L21.3657 76.109L22.2949 75.2063Z" fill="black"/>
<path d="M21.6981 69.1413L16.7732 72.4577L14.194 68.6198L15.1865 67.9514L16.9026 70.5051L17.9025 69.8318L16.5377 67.8008L17.4704 67.1727L18.8352 69.2037L19.8426 68.5253L18.0613 65.8745L19.0538 65.2062L21.6981 69.1413Z" fill="black"/>
<path d="M12.2168 64.5055C11.9919 64.0016 11.8733 63.5225 11.861 63.0681C11.8408 62.6107 11.9177 62.1723 12.0917 61.7528L13.3076 62.027C13.1663 62.3727 13.0966 62.7094 13.0983 63.0371C13.0922 63.3618 13.1661 63.6967 13.32 64.0417C13.4105 64.2444 13.5057 64.3989 13.6057 64.5053C13.7057 64.6116 13.8063 64.6751 13.9074 64.6956C14.0084 64.7161 14.1083 64.7043 14.2068 64.6602C14.3218 64.6088 14.3971 64.5127 14.4328 64.3719C14.4606 64.2281 14.4481 64.0235 14.3953 63.758L14.1937 62.7543C14.0776 62.1557 14.0839 61.6767 14.2123 61.317C14.3408 60.9573 14.6049 60.6881 15.0046 60.5094C15.3878 60.338 15.7576 60.2909 16.1138 60.3681C16.4646 60.4478 16.7854 60.6295 17.0763 60.9134C17.3617 61.1997 17.6033 61.5646 17.8013 62.0083C17.9626 62.3697 18.0783 62.7319 18.1482 63.0948C18.2128 63.4601 18.2298 63.8073 18.1993 64.1363C18.1687 64.4653 18.098 64.763 17.987 65.0294L16.7383 64.7699C16.836 64.562 16.9038 64.3313 16.9417 64.0778C16.9717 63.8213 16.9698 63.5594 16.9359 63.292C16.8995 63.0192 16.8263 62.7596 16.7164 62.5131C16.6308 62.3214 16.5408 62.1712 16.4462 62.0623C16.3493 61.948 16.249 61.8779 16.1455 61.8519C16.0419 61.8259 15.9382 61.8362 15.8341 61.8827C15.7192 61.9342 15.6417 62.0181 15.6017 62.1345C15.5562 62.2534 15.5574 62.4401 15.6053 62.6946L15.8309 63.796C15.8965 64.1346 15.9257 64.45 15.9182 64.7424C15.9029 65.0318 15.8272 65.289 15.6912 65.5141C15.5497 65.7416 15.3284 65.9227 15.0273 66.0573C14.6878 66.2091 14.3452 66.2507 13.9993 66.182C13.6479 66.1157 13.3174 65.9416 13.0076 65.6596C12.6979 65.3777 12.4343 64.9929 12.2168 64.5055Z" fill="black"/>
<path d="M9.54568 55.3612L10.7055 55.0671L11.1799 56.9422L15.7755 55.7771L16.1551 57.2772L11.5594 58.4423L12.0361 60.3262L10.8763 60.6202L9.54568 55.3612Z" fill="black"/>
<path d="M10.3757 38.7919L11.555 38.9943L11.2285 40.9008L15.9012 41.7027L15.64 43.2278L10.9673 42.4259L10.6393 44.3412L9.46 44.1388L10.3757 38.7919Z" fill="black"/>
<path d="M12.8734 31.9674L18.4418 34.0283L17.9057 35.4798L12.3373 33.419L12.8734 31.9674ZM11.5518 35.5456L17.1202 37.6065L16.5841 39.058L11.0158 36.9971L11.5518 35.5456ZM14.8261 33.4575L15.9482 33.8728L14.6017 37.5185L13.4796 37.1032L14.8261 33.4575Z" fill="black"/>
<path d="M19.196 32.8812L14.1001 29.834L16.4696 25.8632L17.4965 26.4772L15.9199 29.1193L16.9545 29.738L18.2084 27.6367L19.1736 28.2138L17.9196 30.3151L18.962 30.9384L20.5985 28.1959L21.6254 28.81L19.196 32.8812Z" fill="black"/>
<path d="M25.1504 24.9137L21.1877 20.4921L23.3362 18.5625C23.8846 18.0781 24.3803 17.8224 24.8232 17.7954C25.2621 17.764 25.6537 17.9403 25.9979 18.3244C26.2221 18.5745 26.3426 18.8573 26.3595 19.1726C26.3723 19.4835 26.2491 19.7998 25.9897 20.1214L25.9957 20.1281C26.3748 19.8682 26.733 19.7602 27.0702 19.8039C27.4079 19.8392 27.6968 19.9909 27.937 20.2589C28.2772 20.6385 28.4075 21.0535 28.3279 21.5039C28.2443 21.9498 27.9348 22.4131 27.3993 22.894L25.1504 24.9137ZM25.535 23.1053L26.4787 22.2577C26.6884 22.0694 26.8066 21.8867 26.8332 21.7096C26.8597 21.5326 26.801 21.3637 26.6569 21.2029C26.5168 21.0466 26.3594 20.9743 26.1847 20.9861C26.006 20.9934 25.8118 21.0912 25.6021 21.2796L24.6584 22.1271L25.535 23.1053ZM23.9199 21.3031L24.7565 20.5517C25.167 20.183 25.2282 19.8379 24.94 19.5163C24.6518 19.1948 24.3025 19.2183 23.8919 19.587L23.0553 20.3384L23.9199 21.3031Z" fill="black"/>
<path d="M29.9955 20.9409L26.8791 15.887L30.8128 13.4563L31.4408 14.4747L28.8234 16.092L29.4562 17.1181L31.5378 15.8318L32.128 16.789L30.0464 18.0753L30.6838 19.1091L33.4007 17.4303L34.0287 18.4487L29.9955 20.9409Z" fill="black"/>
<path d="M34.9961 11.6382C35.5082 11.4329 35.9914 11.3328 36.4457 11.3381C36.9033 11.3355 37.3381 11.4293 37.7501 11.6195L37.428 12.8245C37.0884 12.6699 36.7549 12.5872 36.4276 12.5763C36.1036 12.5576 35.7662 12.6185 35.4155 12.7592C35.2095 12.8417 35.0514 12.931 34.9412 13.0269C34.831 13.1227 34.7637 13.2208 34.7392 13.3211C34.7147 13.4214 34.7226 13.5216 34.7627 13.6219C34.8094 13.7388 34.9024 13.8178 35.0416 13.8589C35.1841 13.8922 35.389 13.8876 35.6562 13.8451L36.6666 13.6823C37.269 13.5894 37.7472 13.6141 38.1013 13.7564C38.4554 13.8988 38.7138 14.1732 38.8764 14.5797C39.0324 14.9694 39.0648 15.3409 38.9735 15.6941C38.8801 16.0418 38.6858 16.3555 38.3908 16.6353C38.0936 16.9096 37.7196 17.1371 37.2687 17.3179C36.9013 17.4652 36.535 17.5668 36.1698 17.6228C35.8023 17.6732 35.4549 17.6768 35.1276 17.6336C34.8002 17.5904 34.5057 17.5082 34.244 17.3869L34.5527 16.1485C34.7565 16.2542 34.9842 16.3309 35.2359 16.3786C35.4909 16.4185 35.7525 16.4267 36.0209 16.4031C36.2948 16.3773 36.557 16.3142 36.8075 16.2137C37.0023 16.1356 37.1559 16.0514 37.2684 15.9611C37.3864 15.8685 37.4604 15.771 37.4904 15.6685C37.5205 15.566 37.5143 15.4618 37.472 15.356C37.4252 15.2391 37.3445 15.1584 37.2298 15.1139C37.1129 15.0639 36.9264 15.0579 36.6703 15.0959L35.5613 15.2789C35.2206 15.3315 34.9044 15.3484 34.6127 15.3297C34.3243 15.3032 34.0704 15.2176 33.8511 15.0729C33.6295 14.9227 33.4574 14.6945 33.3348 14.3882C33.1967 14.043 33.1688 13.6988 33.2511 13.3556C33.3312 13.0069 33.5182 12.6831 33.8121 12.3844C34.106 12.0856 34.5006 11.8369 34.9961 11.6382Z" fill="black"/>
<path d="M44.2307 9.32286L44.4786 10.4934L42.5865 10.895L43.5689 15.5331L42.0552 15.8543L41.0729 11.2162L39.172 11.6196L38.9241 10.4491L44.2307 9.32286Z" fill="black"/>
<path d="M60.7393 10.8046L60.4914 11.9751L58.5993 11.5736L57.617 16.2117L56.1033 15.8905L57.0857 11.2523L55.1848 10.8489L55.4328 9.67836L60.7393 10.8046Z" fill="black"/>
<path d="M67.454 13.5699L65.1808 19.055L63.7517 18.4615L66.025 12.9764L67.454 13.5699ZM63.9314 12.1069L61.6581 17.592L60.2291 16.9985L62.5023 11.5134L63.9314 12.1069ZM65.8904 15.4629L65.4323 16.5683L61.8431 15.0777L62.3013 13.9723L65.8904 15.4629Z" fill="black"/>
<path d="M66.2914 19.8584L69.531 14.8826L73.4037 17.4093L72.7509 18.412L70.1741 16.7308L69.5164 17.741L71.5657 19.0781L70.9522 20.0205L68.9028 18.6834L68.2401 19.7012L70.9149 21.4463L70.262 22.449L66.2914 19.8584Z" fill="black"/>
<path d="M74.0076 26.1282L78.577 22.3369L80.4187 24.5612C80.8807 25.1286 81.1165 25.6343 81.1261 26.0784C81.1402 26.5187 80.9488 26.9035 80.5519 27.2328C80.2934 27.4473 80.0064 27.5568 79.691 27.5614C79.3801 27.5621 79.0693 27.4265 78.7584 27.1545L78.7515 27.1602C78.996 27.5496 79.0898 27.9121 79.0328 28.2477C78.9843 28.5841 78.8216 28.8672 78.5447 29.097C78.1524 29.4225 77.733 29.5367 77.2865 29.4395C76.8447 29.3385 76.3943 29.0108 75.9353 28.4565L74.0076 26.1282ZM75.7977 26.5834L76.6067 27.5604C76.7865 27.7775 76.9642 27.9028 77.1398 27.9363C77.3155 27.9698 77.4864 27.9176 77.6526 27.7798C77.8141 27.6457 77.8925 27.4911 77.8876 27.3159C77.8873 27.1369 77.7973 26.9388 77.6175 26.7217L76.8085 25.7447L75.7977 26.5834ZM77.6601 25.0381L78.3773 25.9043C78.7292 26.3293 79.0713 26.4039 79.4036 26.1282C79.7359 25.8524 79.7261 25.5021 79.3742 25.0771L78.6571 24.2109L77.6601 25.0381Z" fill="black"/>
<path d="M77.7816 31.1301L82.9509 28.2091L85.2222 32.2369L84.1805 32.8256L82.6692 30.1456L81.6197 30.7386L82.8216 32.8701L81.8426 33.4233L80.6407 31.2918L79.5833 31.8893L81.152 34.6712L80.1103 35.2598L77.7816 31.1301Z" fill="black"/>
<path d="M86.872 36.4931C87.0568 37.013 87.1376 37.4999 87.1144 37.9539C87.0988 38.4115 86.9878 38.8425 86.7815 39.247L85.5908 38.8785C85.7586 38.545 85.8545 38.2148 85.8784 37.888C85.9099 37.5648 85.8624 37.2252 85.7358 36.8691C85.6615 36.6601 85.5787 36.4986 85.4873 36.3847C85.3959 36.2708 85.3006 36.1997 85.2014 36.1714C85.1022 36.143 85.0018 36.147 84.9001 36.1832C84.7814 36.2255 84.6988 36.3154 84.6522 36.4529C84.6133 36.5941 84.6098 36.7991 84.6417 37.0679L84.7642 38.0842C84.8331 38.69 84.7895 39.1671 84.6333 39.5156C84.4771 39.8641 84.1928 40.1118 83.7804 40.2587C83.3849 40.3996 83.0126 40.4176 82.6634 40.3127C82.3199 40.2059 82.0143 39.9996 81.7465 39.6939C81.4843 39.3862 81.2719 39.0034 81.1092 38.5457C80.9766 38.1727 80.8896 37.8026 80.8482 37.4354C80.8124 37.0661 80.8226 36.7187 80.8788 36.3931C80.9349 36.0675 81.0287 35.7763 81.1601 35.5194L82.3848 35.8758C82.2712 36.0754 82.1855 36.3001 82.1279 36.5498C82.0779 36.8032 82.0594 37.0645 82.0723 37.3336C82.0873 37.6084 82.1399 37.873 82.2303 38.1273C82.3006 38.3251 82.3786 38.4819 82.4644 38.5978C82.5521 38.7193 82.6466 38.7971 82.7478 38.8311C82.849 38.8651 82.9533 38.863 83.0606 38.8247C83.1793 38.7825 83.2631 38.7049 83.312 38.5919C83.3667 38.477 83.38 38.2908 83.3522 38.0333L83.2134 36.9176C83.1744 36.575 83.17 36.2583 83.2003 35.9673C83.2382 35.6801 83.3337 35.4296 83.4869 35.2159C83.6457 35.0001 83.8805 34.8369 84.1913 34.7262C84.5415 34.6015 84.8864 34.5869 85.2259 34.6824C85.5711 34.7759 85.887 34.9754 86.1737 35.2807C86.4605 35.586 86.6933 35.9902 86.872 36.4931Z" fill="black"/>
<path d="M88.8197 45.818L87.6405 46.0204L87.314 44.114L82.6412 44.9159L82.3801 43.3907L87.0528 42.5888L86.7248 40.6735L87.904 40.4711L88.8197 45.818Z" fill="black"/>
<path d="M86.6992 62.2727L85.5394 61.9787L86.0138 60.1036L81.4182 58.9384L81.7977 57.4383L86.3933 58.6035L86.8699 56.7196L88.0298 57.0137L86.6992 62.2727Z" fill="black"/>
<path d="M83.6752 68.8813L78.2852 66.391L78.933 64.9858L84.3231 67.4761L83.6752 68.8813ZM85.2723 65.4173L79.8822 62.9271L80.5301 61.5219L85.9201 64.0121L85.2723 65.4173ZM81.845 67.2429L80.7588 66.7411L82.386 63.2118L83.4722 63.7136L81.845 67.2429Z" fill="black"/>
<path d="M77.4436 67.4752L82.2855 70.9117L79.6129 74.6852L78.6371 73.9926L80.4154 71.4819L79.4324 70.7842L78.0181 72.781L77.101 72.1302L78.5153 70.1333L77.5249 69.4304L75.679 72.0366L74.7033 71.3441L77.4436 67.4752Z" fill="black"/>
<path d="M70.887 74.9525L74.4919 79.6704L72.199 81.426C71.6144 81.8661 71.1003 82.0822 70.6566 82.0745C70.2165 82.0715 69.8399 81.8651 69.5268 81.4553C69.3229 81.1884 69.2249 80.8971 69.2327 80.5814C69.2442 80.2705 69.3918 79.9648 69.6756 79.6644L69.6701 79.6573C69.2718 79.8867 68.9062 79.9665 68.5735 79.8964C68.2396 79.8348 67.9634 79.6611 67.7449 79.3751C67.4354 78.9701 67.3379 78.5462 67.4525 78.1034C67.5707 77.6654 67.9156 77.2277 68.487 76.7901L70.887 74.9525ZM70.3622 76.7253L69.355 77.4965C69.1312 77.6678 68.9991 77.8407 68.9588 78.0151C68.9185 78.1895 68.9638 78.3625 69.0949 78.5341C69.2224 78.7009 69.3736 78.7852 69.5487 78.7872C69.7274 78.7939 69.9287 78.7115 70.1525 78.5401L71.1596 77.769L70.3622 76.7253ZM71.8315 78.6482L70.9386 79.3319C70.5005 79.6673 70.4125 80.0066 70.6747 80.3497C70.9369 80.6929 71.287 80.6967 71.7251 80.3613L72.618 79.6776L71.8315 78.6482Z" fill="black"/>
<path d="M65.7464 78.5331L68.4583 83.8151L64.3465 85.9306L63.8 84.8662L66.5359 83.4586L65.9853 82.3862L63.8094 83.5057L63.2958 82.5053L65.4716 81.3858L64.9169 80.3054L62.0771 81.7665L61.5306 80.7021L65.7464 78.5331Z" fill="black"/>
<path d="M60.034 87.416C59.5073 87.5806 59.0178 87.6425 58.5653 87.6018C58.1088 87.5685 57.6827 87.441 57.2868 87.2191L57.702 86.0431C58.0286 86.2238 58.3546 86.3323 58.6801 86.3688C59.0017 86.4128 59.3428 86.3784 59.7034 86.2657C59.9152 86.1995 60.0798 86.1229 60.1971 86.0359C60.3145 85.949 60.3893 85.8565 60.4215 85.7584C60.4538 85.6604 60.4538 85.5598 60.4217 85.4568C60.3842 85.3365 60.2976 85.2505 60.1621 85.1986C60.0226 85.1542 59.818 85.1428 59.5482 85.1643L58.5282 85.2475C57.9204 85.293 57.4455 85.231 57.1036 85.0614C56.7617 84.8918 56.5256 84.598 56.3952 84.18C56.2701 83.7793 56.2669 83.4064 56.3855 83.0614C56.5058 82.7222 56.7239 82.4246 57.0399 82.1688C57.3577 81.9186 57.7484 81.7211 58.2121 81.5761C58.5899 81.458 58.963 81.3853 59.3315 81.3581C59.7017 81.3366 60.0483 81.3602 60.3713 81.4289C60.6943 81.4976 60.9815 81.6026 61.2329 81.7439L60.8284 82.9543C60.6335 82.833 60.4124 82.7388 60.1653 82.6715C59.9142 82.6118 59.654 82.5832 59.3846 82.5857C59.1095 82.59 58.8432 82.6324 58.5856 82.7129C58.3852 82.7756 58.2255 82.8475 58.1063 82.9287C57.9814 83.0118 57.9 83.1032 57.8621 83.203C57.8241 83.3029 57.8221 83.4072 57.856 83.516C57.8935 83.6362 57.9677 83.723 58.0786 83.7763C58.1913 83.8353 58.3767 83.8559 58.635 83.838L59.7549 83.7424C60.0987 83.7166 60.4153 83.7244 60.7046 83.7659C60.9901 83.8149 61.2365 83.9201 61.4439 84.0815C61.6531 84.2486 61.8068 84.4896 61.9051 84.8045C62.0158 85.1595 62.0167 85.5048 61.9078 85.8404C61.8007 86.1818 61.589 86.4899 61.2727 86.7648C60.9563 87.0396 60.5434 87.2567 60.034 87.416Z" fill="black"/>
<path d="M50.6458 89.0004L50.4901 87.8141L52.4077 87.5619L51.7907 82.8612L53.3249 82.6594L53.9419 87.3601L55.8685 87.1067L56.0242 88.293L50.6458 89.0004Z" fill="black"/>
<path d="M49 24.5L53.6775 44.3225L73.5 49L53.6775 53.6775L49 73.5L44.3225 53.6775L24.5 49L44.3225 44.3225L49 24.5Z" fill="black"/>
</svg>
